<svg viewBox="0 0 100 24" xmlns="http://www.w3.org/2000/svg" aria-label="GameStop"><path d="M42.934 18.825h-4.707V9.927c0-1.196-.132-2.063-.78-2.063-.647 0-.778.867-.778 2.063v8.898h-4.707V9.927c0-1.196-.132-2.063-.78-2.063-.647 0-.778.867-.778 2.063v8.898h-4.707V5.242h4.707v1.404c.592-1.01 1.646-1.668 2.995-1.668 1.284 0 2.403.461 3.105 1.8.615-1.23 1.778-1.8 3.05-1.8 1.833 0 3.402 1.163 3.402 4.104v9.743h-.022zm-23.59-6.78c-.626.515-1.57 1.063-1.57 2.72 0 1.108.286 1.558.79 1.558.506 0 .79-.45.79-1.558v-2.72h-.01zm-.659-7.067c3.128 0 5.377 1.086 5.377 4.488v9.359h-4.707v-1.174c-.505.8-1.416 1.426-2.886 1.426-1.01 0-3.368-.35-3.368-3.873 0-4.828 6.254-3.17 6.254-6.111 0-1.196-.285-1.69-.79-1.69-.505 0-.79.494-.79 1.69v.746h-4.477v-.362c.011-3.413 2.26-4.499 5.388-4.499zm32.182 8.383h4.476c-.065 3.96-2.337 5.705-5.486 5.705-3.193 0-5.497-1.788-5.497-5.87v-2.348c0-4.07 2.304-5.87 5.497-5.87s5.497 1.789 5.497 5.87v1.427h-6.276V14.6c0 1.196.154 2.062.9 2.062s.9-.866.9-2.062v-1.24h-.011zm-.23-3.906c0-1.196-.132-2.063-.78-2.063-.647 0-.779.867-.779 2.063v.713h1.57v-.713h-.012zM11.74 8.16v-.68c0-4.707-2.787-5.98-5.87-5.98S0 3.168 0 7.875v4.828c0 3.16 1.339 6.374 4.926 6.374 1.646 0 2.7-.79 3.16-1.547l.374 1.306h3.28V9.828H6.046v2.897h1.272v.614c0 1.47-.208 2.83-1.13 2.83-.932 0-1.13-1.349-1.13-2.83V7.15c0-1.438.099-2.754.812-2.754.713 0 .812 1.316.812 2.754v1.01h5.058zm63.913 10.38v-1.887a1.18 1.18 0 0 1-.626.186c-.757 0-.91-.768-.91-1.646V7.052h1.547v-1.8h-1.547V3.41H69.41v1.843h-.944v1.8h.944v8.35c0 2.414 1.316 3.664 3.544 3.664 1.13 0 2.063-.252 2.699-.526zm-12.76-11.5h4.673v-.723c0-3.336-2.227-4.817-5.53-4.817-3.16 0-5.53 1.767-5.53 4.86 0 5.794 6.562 4.521 6.562 8.45 0 1.03-.406 1.37-.9 1.37s-.9-.34-.9-1.37v-1.427H56.54v.68c0 3.49 2.283 5.025 5.684 5.025 3.259 0 5.683-1.81 5.683-5.058 0-6.462-6.747-4.674-6.747-8.25 0-1.032.417-1.372.867-1.372.438 0 .866.34.866 1.371v1.262zm19.672 2.415c0-1.196-.131-2.063-.779-2.063-.647 0-.79.867-.79 2.063v5.135c0 1.196.132 2.063.79 2.063.648 0 .78-.867.78-2.063V9.455zm-.779-4.466c3.193 0 5.497 1.789 5.497 5.87v2.348c0 4.07-2.304 5.87-5.497 5.87s-5.497-1.788-5.497-5.87V10.86c0-4.081 2.304-5.87 5.497-5.87zm13.2 4.938c0-1.196-.132-2.063-.78-2.063-.647 0-.778.867-.778 2.063v4.191c0 1.196.131 2.063.779 2.063.647 0 .779-.867.779-2.063V9.927zm1.196-4.949c2.227 0 3.51 1.8 3.51 5.87v2.348c0 4.071-1.283 5.87-3.51 5.87-1.065 0-2.162-.526-2.765-1.448v4.597H88.71V5.241h4.707v1.185c.603-.91 1.7-1.448 2.765-1.448z"/></svg>