<svg viewBox="0 0 18 18" xmlns="http://www.w3.org/2000/svg"><path d="m16.5 9.143-.975-4.433v-.075a1.32 1.32 0 0 0-1.275-.885H3.825a1.335 1.335 0 0 0-1.313.885v.075L1.5 9.143a.75.75 0 0 0 .27.75c.26.193.542.356.84.487v4.245A1.898 1.898 0 0 0 4.5 16.5h9a1.898 1.898 0 0 0 1.875-1.875v-4.252c.297-.131.579-.295.84-.488a.75.75 0 0 0 .285-.742zM3.907 5.25h10.185l.81 3.69c-.75.383-2.58 1.11-5.902 1.11-3.323 0-5.168-.75-5.903-1.11l.81-3.69zm9.968 9.375A.405.405 0 0 1 13.5 15h-9a.405.405 0 0 1-.375-.375v-3.69A17.52 17.52 0 0 0 9 11.55a17.55 17.55 0 0 0 4.875-.615v3.69zM3 2.25a.75.75 0 0 1 .75-.75h10.5a.75.75 0 1 1 0 1.5H3.75A.75.75 0 0 1 3 2.25z"/></svg>