<svg viewBox="0 0 24 24" xmlns="http://www.w3.org/2000/svg"><path d="M7.7 19.6h5.4v-1.8H7.7a1.5 1.5 0 0 1-1.5-1.5V6.7a1.5 1.5 0 0 1 1.5-1.5h3.9v3.6h1.8V5.2h3.9a1.501 1.501 0 0 1 1.5 1.5V10h1.8V6.7a3.3 3.3 0 0 0-3.3-3.3H7.7a3.3 3.3 0 0 0-3.3 3.3v9.6a3.3 3.3 0 0 0 3.3 3.3z"/><path d="M19.1 11.8a4.5 4.5 0 0 0-4.5 4.5c0 2.838 2.83 5.18 3.396 5.621l1.104.86 1.104-.862c.567-.438 3.396-2.781 3.396-5.62a4.5 4.5 0 0 0-4.5-4.499zm0 8.7s-2.7-2.1-2.7-4.2a2.7 2.7 0 0 1 5.4 0c0 2.1-2.7 4.2-2.7 4.2z"/><path d="M20 16.3c0 1.2-1.8 1.2-1.8 0s1.8-1.2 1.8 0z"/></svg>