<svg viewBox="0 0 309 246" xmlns="http://www.w3.org/2000/svg"><path fill-rule="evenodd" clip-rule="evenodd" d="M168.509 108.601c-.362-.527-1.007-.792-1.519-1.14.229.525.249.684.017 1.185-.18.387-.299.799-.472 1.189-.118.267-.308.537-.383.811-.088.321-.042.647-.161.965 1.398-.378 2.64-1.262 3.831-2.083-.222-.032-.808-.022-.996-.184-.152-.133-.184-.548-.317-.743zm33.647-4.716c.61.486.61.486.631 1.311-.513-.312-.683-.695-.631-1.311zm-29.546 2.167c-.282.023-.35-.792-.412-1.031l.277-.038c.127.136.628 1.028.135 1.069zm42.384 8.336c.399-2.211.886-4.409 1.533-6.561a51.644 51.644 0 0 1 1.058-3.131c.333-.893.967-1.862 1.078-2.799-1.009.911-1.831 2.052-2.701 3.096-.831.998-1.703 1.978-2.488 3.013-.32.421-.608.905-.629 1.447-.022.594.319.956.563 1.456.256.524.429 1.168.555 1.733.138.619-.079.921-.291 1.481-.454-.224-.845-.348-1.177-.753-.352-.43-.649-.913-.982-1.358-.725-.971-1.458-1.935-2.179-2.909-1.446-1.953-2.713-3.925-3.797-6.098-1.099-2.201-2.082-4.46-3.153-6.675-.226-.466-.318-.977-.919-.976-.445 0-.822.276-1.24.385a1.36 1.36 0 0 1-.316.055.79.79 0 0 1-.052.308c-.11.134-.15.08-.303.072-.177-.01-.305-.12-.498-.108-.268.019-.529.196-.781.276v-.613c-.802.412-2.743 1.789-3.165.228-.036.284.04.796-.239.978-.185.121-.418-.005-.618.02-.25.033-.473.213-.705.3-.015-.42-.336-.373-.647-.43-.404-.073-.756-.297-1.172-.225-.413.071-.712.256-1.128.034-.279-.15-.539-.36-.82-.518-.286-.16-.336-.272-.459-.556-.135-.316-.111-.245-.433-.155-.689.191-.957-.64-1.079-1.203-.296-1.379.044-2.884.953-3.96 1.17-1.384 2.408-2.741 3.937-3.74 1.413-.924 2.914-2.067 4.563-2.514-1.316-2.947-3.192-5.69-4.865-8.449-.479.11-.766.37-1.277.289-.403-.064-.385-.033-.535.387-.133.375-.207.429-.564.543-.372.12-.077-.112-.353.18-.124.13-.191.272-.345.38-.562.393-1.297.167-1.907.412-.422.17-.214.385-.43.677-.228.309-.616.148-.932.098-.66-.104-.859.119-.998.74-.104.46-.172.699-.666.795-.28.055-.715-.168-.894.012-.069.07-.04.263-.072.352a1.246 1.246 0 0 1-.274.42 2.563 2.563 0 0 1-.874.6c-.303.127-.623.056-.911.167-.453.174-.343.656-.328 1.038-.257-.062-.316-.055-.47-.248-.07-.089-.032-.238-.17-.275-.119-.033-.763.364-.854.477-.267.33.003.798-.065 1.183-.068.383-.38.672-.626.954l-.241-.698c-.12.156-.288.267-.339.462-.027.102.055.238.01.34-.13.29-.26.107-.502.117-.213.008-.786.171-.685.504.068.225.511.173.458.478-.063.37-.545.128-.74.205-.255.101-.154.319-.241.54-.153.388-.462.423-.783.613-.316.189-.439.417-.584.74-.181.403-.163.295-.553.26-.24-.023-.365.026-.461.248-.077.18.055.403-.012.57-.084.205-.519.438-.669.646-.408.567-.583 1.266-.916 1.874a6.51 6.51 0 0 1-.502.775c-.247.33-.401.267-.735.443-.54.287-.382 1.043-.442 1.543-.031.258-.094.496-.278.69-.11.117-.499.25-.422.481.093.28.403-.019.345.418-.047.349-.444.635-.532.984-.061.24.019.468-.044.71-.068.265-.274.465-.374.714-.1.25.058.565-.028.755-.1.22-.466.164-.564.45-.108.314.144.807.189 1.128.029.204.137.428-.036.596-.148.143-.497.118-.346.474.069.164.331.13.36.378.022.192-.2.482-.319.612-.319.344-.923.632-.488 1.071.075.075.167.04.237.142.083.12.095.334.141.471.113.327.275.636.476.919.765 1.078 2.031 1.585 2.873 2.564 1.028-1.023 2.08-2.021 3.047-3.101.821-.917 1.615-1.865 2.554-2.667.485-.414 1.04-.748 1.443-1.249.385-.479.527-1.081.821-1.613.575-1.045 1.405-1.922 2.022-2.94 1.211.789.705 2.803.356 3.932a10.196 10.196 0 0 1-.868 1.983c-.299.534-.721 1.064-.864 1.67-.118.491.054.904.338 1.304.408.572.885 1.108 1.315 1.666l3.138 4.074c.379-.547 1.004-.189 1.507-.084.737.154 1.498.1 2.245.17.782.074 1.574.204 2.35.33.695.112.233.434.569.817.711-1.28 2.069-.471 3.178-.358.696.072 1.435.034 2.118.121.689.088 1.37.324 2.084.392 1.345.129 2.562.593 3.883.834.697.128 1.401.218 2.098.346.247.045.684.068.823.323.163.303-.17.941-.26 1.213-.135.407-.23 1.03-.503 1.369-.212.261-.266.102-.538.091-.316-.014-.188.054-.406.298-.268.302-.646.304-1.02.337-.171.016-.511-.015-.643.103-.186.167-.026.178-.04.434-.024.446-.642.779-1.003.954-.231.112-.479.204-.74.186-.164-.012-.359-.17-.524-.104-.233.093-.215.534-.351.72-.25.345-.586.089-.914.264-.394.208-.617.704-.991.95-.74.487-1.593.541-1.961-.373-.148.306-.496.781-.365 1.089.116.273.481.474.728.608.723.393 1.432.785 2.125 1.232 1.594 1.028 3.126 2.153 4.829 3 1.677.834 3.439 1.733 5.29 2.097a9.316 9.316 0 0 0 5.61-.649c-.264-.526-.304-.865-.32-1.466-.015-.567-.027-1.134-.035-1.702a72.626 72.626 0 0 1 .032-3.398c.08-2.271.328-4.516.731-6.752zm20.08-1.623c-.171-.609-.366-1.245-.404-1.878-.028-.457.142-1.137-.131-1.535-.115-.169-.322-.228-.389-.431-.054-.164.028-.491.006-.671-.056-.467-.242-.904-.413-1.339-.389-.987-.4-2.023-.724-3.023-.178-.548-.511-1.016-.706-1.555-.178-.491-.268-1.009-.324-1.526-.06-.551-.059-1.098-.192-1.64-.124-.505-.278-1-.389-1.509-.267-1.21-.575-2.396-1-3.563-.16-.441-.276-1.18-.667-1.477-.284-.215-.658-.16-.988-.137-.376.025-.684.043-.934.357-.32.4-.523.836-.893 1.212-.377.383-.847.713-1.186 1.13-.266.326-.114.437.172.715-.37.049-.675-.053-.944.227-.274.285-.483.758-.657 1.108-.392.79-.437 1.499-.554 2.353l-.313-.487c-.132.36-.324.733-.705.88-.466.182-.452.123-.453.646-.003.751-.626 1.224-1.019 1.793a5.525 5.525 0 0 0-.579 1.041c-.186.459-.068.76-.024 1.23.067.703-.611 1.241-1.019 1.74-.127.155-.199.231-.27.421-.053.141.02.23-.086.381-.192.271-.592.198-.746.532-.145.313.056.627.087.936.051.494-.247.949-.409 1.399a7.098 7.098 0 0 0-.377 1.511 5.599 5.599 0 0 0-.042.897c.005.138.112.486.021.612-.118.163-.375-.024-.482.157-.221.371.602.489.763.547-.191.12-.442.205-.597.375-.205.226-.078.36-.163.613-.093.276-.425.351-.528.595-.106.25.101.304.209.511.263.507.027 1.266-.078 1.786-.042.209-.022.752-.153.913-.083.103-.27.065-.343.156-.152.189.008.266.071.484.079.275.066.568-.008.843-.07.261-.239.501-.287.766-.052.291.093.39.192.66.221.602.066 1.347-.009 1.96-.088.714.162 1.388-.025 2.049a268.85 268.85 0 0 1-.596-.257l.189.944.093.465c-.039.201.029.281.203.239.341.099.868-.439 1.149-.598.846-.478 1.759-.821 2.637-1.233.913-.429 1.677-1.008 2.513-1.555.861-.563 1.77-1.045 2.609-1.641 3.632-2.577 7.569-4.751 11.356-7.096-1.061.12-1.254-1.285-1.464-2.033zm4.492-29.32c.568.165.438.646.222 1.065-.219-.207-.604-.45-.707-.744-.126-.367.158-.416.485-.321zm15.887 14.24c-.031.146-.064.743-.176.835-.102.084-.625-.034-.764-.041-.438-.023-.774.066-1.189.169-.715.176-.844-.268-.847-.933-.549 1.084-1.464 1.626-2.632 1.836-.523.093-1.082.205-1.612.227a5.999 5.999 0 0 1-1.232-.085c-.248-.043-.473-.196-.707-.24-.512-.096-.051.273-.421.371-.095.025-.453-.13-.594-.138-.226-.014-.454.024-.68.012-.514-.026-.681-.312-1.088-.532-.213-.116-.359-.1-.587-.067-.251.036-.061.119-.354.067-.094-.017-.265-.123-.342-.157-.556-.25-.99-.472-1.418-.904-.313-.316-.708-.529-1.021-.842-.113-.113-.174-.252-.274-.369-.129-.15-.138-.113-.3-.226-.185-.128-.328-.2-.441-.404-.193-.348-.185-.828-.216-1.213-.102-1.314.133-2.484.757-3.643.678-1.257 1.24-2.587 2.033-3.78.718-1.078 1.618-2.09 2.501-3.037.25-.268.522-.58.825-.788.197-.136.453-.196.639-.344.441-.353.226-1 .226-1.49.14.246.358.615.691.534.22-.053.227-.3.386-.397.122-.074.266-.037.402-.051-.534-2.618-1.221-5.26-2.08-7.792-2.349 2.304-4.699 4.625-6.979 6.999-1.177 1.224-2.263 2.53-3.434 3.76-1.231 1.292-2.488 2.558-3.733 3.836.338.327.726.55.957.971.212.388.456.681.748 1.013.661.75.977 1.867 1.385 2.77.081.177.102.23.081.39-.013.099-.114.185-.116.305-.002.151.069.252.16.367.084.107.332.23.353.37.024.168-.148.28-.205.437-.253.69.576 1.178.856 1.719.155.297.226.597.028.895-.162.243-.519.337-.33.707.119.231.449.104.4.426-.026.173-.36.335-.048.524.252.153.552-.12.435.353-.053.212-.336.425-.255.662.079.231.491.268.656.449.206.228.3.608.34.905.14 1.01.373 1.926.604 2.918.156.665-.244.677-.835.681.398.558.79 1.118 1.215 1.656.416.527.523 1.344.718 1.981.235.766.463 1.534.691 2.301.103.35.175.691.036 1.043-.159.404-.157.406-.083.825 1.842-1.056 3.58-2.23 5.328-3.437.837-.578 1.677-1.155 2.505-1.747.652-.466 1.295-.971 1.714-1.667.974-1.614 2.406-2.88 3.708-4.242.662-.693 1.279-1.553 2.088-2.079.783-.51 1.613-.96 2.403-1.466l-.876-1.203z" fill="#FF5678"/><path fill-rule="evenodd" clip-rule="evenodd" d="M197.171 119.375c.75-.358 1.442-.838 2.172-1.236.632-.345 1.208-.512 1.752-.99.227-.201.441-.276.708-.408.339-.168.597-.466.898-.689-.768-.299-1.522-.762-2.371-.772-.377-.004-.724.13-1.101.06-.384-.071-.683-.267-.988-.494-.553-.41-.798-.349-1.397-.01-.143.081-.338.262-.513.257-.282-.009-.239-.182-.361-.375-.111-.176.03-.196-.173-.202-.123-.003-.178.167-.315.193-.26.05-.749-.203-1.009-.25-.437-.079-.773.015-1.204.043-.449.028-.886-.076-1.306-.219-.384-.131-.752-.315-1.14-.432-.505-.152-.608.046-1.075.153-.71.164-1.399-.859-2.05-.319.954 1.39 2.26 2.563 3.466 3.745.649.634 1.306 1.256 2.018 1.821.321.255.649.502.975.75l.445.34c.265.205.241.266.492.148.338-.158.6-.493.971-.654.366-.159.745-.288 1.106-.46zm.473-30.458c.027.625.416 1.138-.132 1.667l-.049-.931c-.017-.324-.18-.675.181-.736zm-.611-2.725c-.093.272-.21.468-.47.607-.37.198-.883-.123-1.14.158-.26.284-.23.95-.568 1.181-.108.075-.228.023-.357.12-.111.083-.115.28-.228.367-.185.142-.342-.004-.516.08-.196.093-.228.315-.28.51-.051.192-.049.44-.19.59-.172.181-.568.31-.777.44l-2.255 1.404c.224.227.718.485.776.82.039.227-.119.252.07.432.086.082.389.168.493.22.426.214.858.402 1.324.504.555.12 1.11.063 1.663.195.58.139 1.152.246 1.751.233.512-.012.995-.154 1.501-.198.95-.082 2.182.004 2.956-.666-.077-.688-.153-1.21-.409-1.865-.235-.601-.474-1.2-.717-1.798-.491-1.207-.991-2.37-1.615-3.51-.127.798-.432-.254-.734-.262-.221-.005-.223.278-.278.438zm52.593 8.678c.419.104.754.157 1.146.337.29.133.4.204.653-.024.137-.123.163-.307.339-.4.174-.09.411-.06.597-.07.472-.025.943-.035 1.415-.053l-1.627-1.564c-.085.145-.311.678-.477.712-.049.01-.205-.156-.288-.163-.09-.007-.154.033-.232.068-.2.089-.29.295-.514.35-.22.054-.469-.048-.692-.053-.061.21-.217.59-.32.86zm-.664-6.766c.094-.39-.109-.794-.047-1.19a19.58 19.58 0 0 1-.134-.202c-.105.234-.172.464-.314.681-.119.181-.304.333-.384.54-.146.374.037.682.22 1.013.245-.273.569-.469.659-.842zm-3.227.842c-.329.008-.203.162-.248.407a1.204 1.204 0 0 1-.189.424c-.17.263-.576.527-.344.882.197.302.208-.075.373.073.172.155-.966 1.317-1.137 1.38-.092.034-.194-.07-.281.003-.079.067.028.736.025.872-.009.358-.033.743.258 1 .338.296.895.308 1.296.476.274.116.531.282.821.36.304.08.567-.089.83-.05.197.03.583.35.783.446.268.128.32.148.581.049.144-.055.426-.162.523-.287.147-.189.035-.186.054-.444.036-.47.527-.415.865-.548-.668-.2-1.037-.917-1.366-1.503-.145-.258-.44-.567-.518-.857-.098-.362.172-.596.335-.899-.222.09-1.09.49-.672.018.13-.147.936-.386.608-.768-.198-.23-.454.24-.683.194-.265-.053-.579-.497-.8-.643-.267-.177-.789-.592-1.114-.585zm-80.14 13.422c.016-1.118.198-2.231.523-3.3.666-2.197 2.079-4.123 2.534-6.39.218-1.09.148-2.196.358-3.289.221-1.151.212-2.33.253-3.5.042-1.15.083-2.302.069-3.454-.005-.413-.121-.987-.016-1.387.087-.335.221-.21.506-.33-.198-.122-.604-.182-.647-.436-.029-.173.141-.363.132-.555-.006-.157-.082-.316-.128-.462-.249-.806-.604-2.047-.144-2.821-.277-.047-.389-.133-.644-.016-.277.126-.551.406-.791.596-.476.378-.949.762-1.376 1.195-.805.817-1.467 1.758-2.168 2.662-.699.9-1.422 1.793-2.141 2.677-.559.688-1.446 1.735-2.225.809-.234.31-.383.623-.765.774-.467.184-.667.375-1.004.77-.067.08-.269.42-.357.451-.177.065-.075-.056-.214-.146-.219-.14-.322-.236-.4.153-.035.173.058.336-.027.507-.078.16-.321.318-.469.404-.343.202-.732.182-1.1.306-.607.203-.993 1.124-1.659.683-.242-.16-.433-.41-.749-.24-.235.127-.275.44-.614.317-.178-.065-.323-.298-.529-.374a2.015 2.015 0 0 0-.455-.093c-.339-.04-.683-.026-1.011-.131-.714-.23-1.205-.863-1.692-1.397-.363-.399-.251-.648-.149-1.155.086-.43.175-.86.281-1.287.21-.846.481-1.681.888-2.455.472-.9 1.163-1.654 1.793-2.444 1.312-1.64 2.55-3.37 3.974-4.916.268-.29.726-.606.677-1.048-.054-.486-.605-.25-.943-.166-.908.226-1.743.666-2.609 1.005-.479.189-1.12.556-1.633.315-.484-.228-1.25-.838-.98-1.398.208-.429.433-.74.543-1.225.099-.433.159-.875.25-1.31.213-1.033.488-2.052.795-3.061.586-1.925 1.302-3.807 1.948-5.712-2.648.238-5.061 1.009-7.549 1.898.117.243.338.59.249.874-.109.349-.58.232-.697.472-.138.284.281.447.157.81-.105.307-.405.66-.579.935.815.525.498-.566 1.07-.64.158.867-.207 1.276-.545 2.007-.301.65.39.588.532 1.075-.398.066-.67-.117-.844.353-.074.2.038.93-.201.95-.175.015-.12-.305-.261-.335-.177-.037-.629.6-.74.719.482 0 .745.051 1.201.234-.296.289-.594.572-.901.849.281.116.759.142.903.456.133.29-.069.817-.098 1.119.12-.181.295-.608.482-.724.244-.153.315-.002.3.333-.029.617-.832.577-.945 1.068-.111.486.584.148.602.63.011.276-.311.511-.152.802-.355-.2-.399-.317-.592-.706-.136.492-.43 1.272-.269 1.784.132.417.408.314.092.719-.117.15-.279.267-.283.471-.009.472.665.837.141 1.257-.203.163-.423.181-.526.464-.089.245.002.572-.071.838-.144.53-.528.923-.912 1.292-.343.331-.656.714-1.031 1.001a1.59 1.59 0 0 0-.416.452c-.058.086.014.168-.065.249-.093.093-.328.084-.452.107-.409.08-.907.245-1.043.7-.499-.378-1.008.082-1.492.232-.241.074-.462.093-.69-.035-.363-.202-.346-.232-.782-.17-1.214.176-2.215-1.089-2.892-1.94-.492-.62-.762-1.39-.891-2.163-.151-.909-.308-1.811-.391-2.73-.175-1.925-.109-3.821-.04-5.75-2.244 1.184-4.346 2.725-6.357 4.266-2.004 1.537-3.718 3.46-5.52 5.232.458.03.9.192 1.36.2.226.006.448-.022.656-.116.114-.052.219-.119.314-.201.083-.167.199-.196.348-.087.451-.037.868-.13 1.32-.196.573-.082 1.182.09 1.745.188 1.051.181 2.167.06 3.183.387.889.286 1.815.695 2.671 1.065.823.357 1.547 1.136 2.244 1.693.403.321.846.458 1.27.721.41.254.721.808 1.011 1.183.699.904 1.48 1.74 2.18 2.64.313.402.596.838.774 1.319.091.245.099.52.186.76.079.213.227.337.357.519.429-1.156.845-2.316 1.289-3.466.17-.441.934-2.563 1.53-1.75.514.701.223 2.139.063 2.92-.215 1.048-.454 2.09-.688 3.134-.465 2.07-.892 4.159-1.484 6.196-.038.132-.114.291-.124.428-.017.238-.099.103.063.268.084.085.281.06.36.16.144.185.094.826.084 1.05-.02.425-.258.612-.369.991-.097.331.068.671.071 1.005.008.827-.422 1.727-.571 2.546-.095.519.204 1.342-.525 1.442.181.306-.033.436-.193.661-.197.28-.211.563-.336.886-.111.285-.282.481-.312.764-.028.256.086.503-.002.763-.104.308-.3.344-.559.478-.251.129-.178-.022-.265.23-.038.112.013.368-.011.496-.113.606-.596 1.011-.998 1.435-.15.159-.346.527-.53.625-.27.143-.675-.105-.923.027-.227.122-.465 1.092-.548 1.328-.178.501-.347 1.007-.516 1.511-.62 1.847-1.231 3.698-1.844 5.547.293-.007.783-.33 1.067-.198.325.152.116.599.238.842.087.174.597.148.836.161.398.021.58-.093.938-.197.619-.18 1.397-.117 2.042-.187 1.426-.155 2.895-.199 4.298-.512 1.343-.299 2.63-.797 3.949-1.184-.615-.324-.73-1.122-.906-1.729-.098-.336-.134-.602-.323-.907a5.663 5.663 0 0 1-.547-1.106c-.538-1.529-.563-3.425-.381-5.019.372-3.256 1.532-6.306 3.321-9.039A23.606 23.606 0 0 1 150.733 98c1.118-1.136 2.265-2.378 3.576-3.293.594-.415 1.288-.56 1.807-1.054.399-.379 1.037-.463 1.526-.73.683-.374 1.263-.668 2.031-.826.565-.116 1.201-.404 1.789-.33.403.05.252.238.489.423.313.245.2-.1.431-.187.196-.073.319.114.482.172.074.027.406.023.388.012.18.109.15.492.252.674.11.195.273.328.342.55.091.296.029.52-.096.773-.138.278-.345.415-.013.685-.829.546-.317 1.642-.941 2.303-.212.224-.689.537-.682.886.008.376.683.525.336.9-.317.342-.998.18-1.364.484-.369.307-.247.834-.28 1.256-.025.323-.339.712-.209 1.024.086.204.234.174.241.397.006.18-.144.421-.194.595l-.414-.181c-.066.244-.179.479-.209.731-.036.296.084.439.146.702.062.265-.081.724-.107 1.04-.03.363-.066.743-.323 1.023-.153.167-.362.193-.527.322-.153.12-.199.281-.304.441l.714-.211c-.096.455-.268.639-.571.997l-.149-.788c-.087.276-.243.495-.228.792.013.254.127.497.128.759.002.51-.374.844-.22 1.335.186.593.225.904.041 1.512-.162.532-.387 1.062-.427 1.623-.044.632.241 1.176.182 1.819-.027.298-.151.508.18.541.296.029.617-.215.873-.337 1.263-.601 2.521-1.212 3.781-1.82-.235-.327-.178-.338-.031-.74l.33-.909c.234-.644.468-1.288.709-1.93.447-1.194 1.047-2.374 1.265-3.638.197-1.141.095-2.279.112-3.429zM88.52 194.166l-1.251-.789.728-.556c.264-.201.383-.388.538.007.163.415-.031.908-.016 1.338zm-.53-3.029c.586.686-.51.884-.933.97.068-.33.312-1.694.932-.97zm12.856-2.413c-.19-.583-.499-2.193-1.378-2.093-.211.023-.401.234-.65.251-.214.015-.423-.041-.634-.059-.463-.039-.96-.013-1.403.134-.515.172-.894.416-1.455.452-.4.027-.82-.007-1.21.106-.67.194-.624.787-.53 1.376-.114-.128-.242-.227-.324-.377-.093-.171-.094-.362-.237-.511-.286-.296-.614-.156-.967-.13-.4.028-.911-.239-1.294-.089-.17.067-.27.257-.448.336-.157.071-.33.083-.499.103-.376.044-.762.169-1.103.162-.483-.01-.892-.041-1.371.089-.448.121-.876.305-1.323.427-.496.136-1.01.15-1.513.248-1.004.198-1.994.648-3.02.707-.539.03-1.058.029-1.594.114-.165.026-.538.018-.673.11-.15.103-.252.532-.338.708-.92 1.9-1.588 3.923-2.323 5.9-.764 2.056-1.524 4.114-2.293 6.17-.36.965-.822 1.929-1.121 2.915-.277.911.799 1.553 1.371 2.127 1.4 1.403 2.817 2.791 4.407 3.983 1.602 1.2 3.413 2.007 5.236 2.812 1.87.825 3.835 1.297 5.856 1.582 1.038.146 2.082.246 3.127.33 1.048.085 1.935-.06 2.968-.193-.102-.238-.435-.656-.395-.921.01-.074.163-.198.2-.286.048-.119.044-.246.047-.371.014-.601-.221-1.184.55-1.398l.076.984c.373-.56.138-1.162-.088-1.726l-.785.655c.053-.16.492-1.171.37-1.266-.12-.095-.338.158-.468.036-.106-.099.012-.334-.022-.461-.053-.204-.274-.361-.272-.584.004-.297.385-.527.566-.719.264-.28.371-.481.37-.865-.002-.53.247-.5.633-.854.626-.572.664-1.358.342-2.111l.83-.064c-.256-.645-.52-1.29-.772-1.937-.248-.64.091-.976.259-1.573l1.139 1.128c.107-1.215.43-2.441.277-3.666-.047-.38-.118-.357.056-.641.126-.204.303-.362.413-.584.216-.435.281-.922.325-1.4.04-.444.021-.932.147-1.362.095-.326.406-.508.481-.869.13-.626-.868-1.718-.287-2.182.295-.236.664-.01.878-.397.183-.331.254-.788.362-1.147.171-.572.252-1.017.045-1.592-.181-.506-.374-1.005-.541-1.517zm9.172-29.308c-.146-.335-.374-.395-.72-.461-1.487-.286-2.988-.288-4.489-.426a8.35 8.35 0 0 1-1.268-.203c-.349-.087-.678-.281-1.02-.363-.682-.163-1.358.288-2.04.256-.349-.017-.643-.225-.975-.312-.273-.072-.52-.016-.798.002a9.695 9.695 0 0 1-1.616-.049 12.242 12.242 0 0 1-1.957-.358c-.423-.116-1.064-.239-1.378-.563a22.841 22.841 0 0 0-1.832 3.442c-.504 1.166-1.173 2.269-1.787 3.381-1.25 2.266-2.146 4.699-2.993 7.135.467-.214.805-.432 1.155.052.33.457.722.308 1.258.394.857.139.95 1.088 1.138 1.798l.833-1.036c.222.247.58.376.762.661.116.183.05.352.12.526.064.162.227.228.35.342.85-1.086 1.647.957 1.75 1.657l.319-.813c.15.164.357.304.475.495.074.119.07.332.148.431.118.147.195.082.363.123.27.066.219.05.375.259.474.631 1.178 1.116 1.577 1.795.5.853 1.183 1.733 1.484 2.676.172.541.248 1.048.53 1.55.147.265.403.492.537.75.166.322-.127.454-.094.742.033.289.514.571.752.661.376.141.82.097 1.217.108.509.015 1.114-.004 1.608-.15.432-.129.399-.35.517-.73.139-.451.385-.883.58-1.311.291-.639.432-1.064-.438-1.255.499-.084 1.315-.231 1.156-.9-.076-.321-.365-.537-.321-.892.045-.361.324-.483.591-.671.504-.355.868-1.019 1.05-1.593.102-.32.13-.569.022-.889a5.66 5.66 0 0 1-.3-1.458l.69.073c-.05-.203-.058-.365-.151-.553-.031-.061-.19-.109-.181-.195.015-.15.218-.146.307-.251.228-.27.295-.9.389-1.227.09-.31.138-.687.307-.966.315-.519.704.213.625-.524-.04-.374-.068-.927-.534-.981-.554-.065-.713.154-.661-.511.036-.47-.091-1.478.414-1.73.24-.121.635-.106.903-.129.321-.027.573.143.868.133.495-.017.467-.722.523-1.081.251-1.595.377-3.217.222-4.828-.061-.636-.101-1.436-.362-2.033z" fill="#FF5678"/><path fill-rule="evenodd" clip-rule="evenodd" d="M122.912 96.47c-.033-1.163-.033-1.163.613-1.605.171.741-.254 1.113-.613 1.605zm11.733 2.97c.14-.277.714-.196.957-.192-.113.234-.508.806-.628 1.242-.134-.253-.465-.779-.329-1.05zm-1.508 8.244c.253-.2.194-.19.314-.431.093-.187.071-.285.271-.41.405-.251.467-.249.571-.785.091-.467.054-1.132.258-1.564.147-.31.632-.338.64-.727.016-.755-1.349-1.14-1.089-1.902.078-.227.324-.297.428-.492.064-.119.021-.275.042-.402.047-.285.125-.347.387-.421-.028.13-.03.246.015.332.172.334.859-.066 1.015-.296.323-.475.025-1.264-.081-1.76-.145-.673-.123-1.186-.069-1.861l.878.964c.16-.486.187-.748.633-1.052.414-.282.575-.468.84-.887.101-.159.169-.335.369-.391.196-.055.518.156.682.075.102-.05.212-.578.246-.672l.329-.896c-.627-1.581-1.138-3.258-2.074-4.697-.858-1.317-2.099-2.383-3.354-3.318-.625-.467-1.259-.942-1.916-1.365-.66-.426-1.372-.579-2.077-.896-.705-.318-1.516-.647-2.3-.687-.398-.02-.782.073-1.181.02-.441-.058-.865-.207-1.304-.281-.001 2.292-.835 4.617-1.616 6.749-.354.97-.864 1.866-1.236 2.829-.376.969-.745 1.935-1.153 2.891-.842 1.97-1.609 4.025-2.694 5.877-.096.164-.205.282-.148.427.017.042.155.125.19.162.11.113.199.245.275.382.178.324.26.688.391 1.031.301.783.839 1.552 1.254 2.286.475.839 1.11 1.572 1.81 2.235.329.312.816.6 1.013 1.013.155.325.162.706.271 1.045l.115-.814c.288.611 1.029.667 1.565.972.678.384 1.269.859 1.993 1.171.729.314 1.489.566 2.275.695.392.063.801.111 1.198.093.406-.017.698-.214 1.066-.359-1.155-.995-.734-2.721-.076-3.868l.608 1.337c.133-.317.59-.616.387-.988-.123-.226-.283-.168-.318-.428-.028-.199.106-.47.203-.639.087.236.122.453.154.703zm-3.364 7.422c-.26-.572-1.328-.705-1.865-.815-.886-.182-1.734-.706-2.531-1.122-.763-.4-1.408-.772-2.026-1.367-.288-.278-.527-.337-.883-.496-.341-.153-.574-.393-.821-.667-.516-.572-1.19-1.006-1.581-1.678-.397-.683-.947-1.119-1.435-1.733-.57-.72-.975-1.552-1.471-2.321-.889.958-1.13 2.453-1.669 3.616a169.348 169.348 0 0 0-1.946 4.378c-1.131 2.632-2.231 5.28-3.216 7.971-.036.099-.229.428-.196.534.033.104.283.217.362.302.208.221.339.491.507.744.306.461.656.892 1.034 1.296.854.911 1.848 1.764 2.935 2.383.472.269 1.145.801 1.686.755.695-.059 1.224-.106 1.923.052.682.153 1.276.287 1.978.268.274-.007.559-.044.821.064.187.077.321.292.533.301.266.012.425-.239.671-.33.214-.079.444-.091.67-.079.331.016 1.102.314 1.366.058.286-.275.177-1.072.713-1.176.398-.078 1.203.649 1.528.853-.141-.423-.624-1.249-.361-1.693.113-.192.271-.226.498-.18.264.053.287.242.497.36 1.14.64 1.038-2.404 1-2.87l-.869-.05c0 .267.084.865-.095.974-.148.09-.686 0-.873 0 .396.377.581.699-.016 1.021a.642.642 0 0 1-.955-.525c-.045-.525.774-.605.623-1.123-.201-.695-.813.482-.925.687-.163-.603-.061-1.155.344-1.632.478-.566 1.024-.6 1.704-.421.065-.286.211-.483.29-.743.093-.311-.049-.237-.186-.507-.224-.44.223-.593.307-.971.05-.226-.042-.423-.152-.612-.122-.21-.36-.355-.009-.469.261-.086.57.164.816-.061.266-.244.168-.753.313-1.057.218-.458.461-.175.815-.046.265.096.345.087.377-.206.016-.147-.004-.293-.116-.397-.184-.169-.438-.049-.645-.105-.281-.077-.295-.254-.402-.509.49-.043.497.113.941.301.354.149.741.127 1.097-.004-.247-.088-.548-.11-.768-.264-.28-.195-.217-.422-.337-.689zm30.55-16.586c.485-.895.924-1.813 1.36-2.733.265-.56.837-1.332.158-1.793-.458-.31-1.295-.746-1.874-.512-.491.2-.761 1.361-1.437.6-.124.35-.543.293-.794.484-.187.141-.17.284-.283.466-.117.188-.314.316-.459.48a3.881 3.881 0 0 0-.438-.68c-.155.259-.119.417-.204.678-.049.151-.092.255-.249.314-.362.135-.717-.308-.9-.552.108.381.165.825-.096 1.157-.202.258-.531.308-.721.577-.213.302-.226.531-.608.656-.074.024-.33.089-.409.087-.084-.001-.126-.146-.161-.145-.116.003-.315.146-.421.196.238.3.144.424-.112.62-.312.236-.294.26-.447.623-.073.173-.159.329-.329.424-.171.096-.399.014-.541.113-.288.201-.256.722-.483.976-.306.342-.692.579-.975.962-.285.387-.513.811-.731 1.237-.424.827-.99 1.598-1.047 2.538-.023.387.009.903-.169 1.261-.18.364-.57.51-.72.932-.127.358-.206.804-.251 1.179-.055.454.229.798.031 1.238-.188.419-.225.72-.262 1.183-.034.43-.372.721-.164 1.088.202.356.409.617.466 1.046.062.465-.012.634-.416.831.244.414.511.735.646 1.204.129.449.298.839.583 1.214.564.741 1.278 1.132 1.265 2.164l7.683-2.57c-.988-.186-.483-1.918-.419-2.565.119-1.185.246-2.376.417-3.555.148-1.015.436-1.999.593-3.012.082-.526.16-1.054.297-1.568.12-.448.372-.869.473-1.308.229-.998.371-1.925.786-2.879.397-.913.889-1.78 1.362-2.655zm-74.599 88.303c.2-.141.39-.114.625-.139.605-.066 1.13-.199 1.72-.373.708-.207 1.46-.327 2.188-.453.696-.121 1.402-.092 2.082-.296.68-.205 1.225-.396 1.941-.424.783-.03 1.243-.395 1.884.259.574-.801 1.404-.796 2.319-.923.328-.045.71-.001.783-.393.068-.365-.222-.847-.38-1.143-.842-1.572-1.552-3.233-2.671-4.633-1.097-1.374-2.517-2.895-4.067-3.753-.84-.465-1.81-.721-2.7-1.071-.965-.379-1.91-.81-2.862-1.22-.495.531-.536 1.173-.784 1.845-.231.627-.628 1.179-.84 1.815-.421 1.273-.782 2.534-1.31 3.773-1.115 2.619-2.196 5.228-3.21 7.89a51.326 51.326 0 0 1 4.76-.504c.315-.02.294-.098.522-.257zm84.418-97.797c.457.05.997.167 1.287.559 1.238-1.794 2.727-3.396 4.275-4.926 1.504-1.486 3.031-2.954 4.68-4.281 3.334-2.683 7.017-4.838 10.826-6.769-1.208-1.39-2.395-2.801-3.611-4.183-1.135-1.29-2.473-2.378-3.799-3.463-.106 1.076-.293 2.178-.283 3.26.009 1.091.158 2.177.173 3.267.012.886-.016 1.831-.244 2.692-.176.665-.573 1.639-1.3 1.851-.992.29-2.675-.201-3.417-.898-.639-.601-.977-1.497-1.485-2.2-.348-.48-.713-.685-1.298-.494-.877.286-1.721.806-2.543 1.217-.93.466-1.857.938-2.788 1.403.063.046.442.24.458.327.005.026-.212.476-.218.564-.025.349.143.683.248 1.005.112.344.201.702.187 1.067-.016.387-.229.653-.306 1.008-.081.374.195.506.338.832.146.334.152.695.089 1.049-.052.288-.227.586-.225.877.001.157.135.331.088.493-.047.16-.237.25-.347.357.502.33.596.282.397.82-.144.389-.092.771-.029 1.169.034.216.257.792.107 1.01-.138.2-.591.044-.799.037.076.403.185.36.375.695.123.218.111.5.098.743-.034.628-.42.698-.934.912zm-73.878 66.512c.674.198 1.323.345 2.026.392.608.041 1.236.058 1.802.316.207.095.433.352.659.348.27-.004.186-.188.375-.308.18-.114.315.014.491.062.264.072.529.069.803.078.756.025 1.512.041 2.268.06.681.017 1.341.128 2.018.132.716.004 1.431 0 2.146 0-.563-1.082-1.036-2.217-1.915-3.084-.445-.439-.819-.93-1.241-1.391-.419-.456-.934-.782-1.399-1.186-.488-.424-.885-.866-1.454-1.191-.235-.134-.501-.311-.758-.391-.212-.065-.422-.037-.618-.153-.23-.136-.436-.417-.658-.578a7.099 7.099 0 0 0-.733-.455c-.502-.279-1.025-.52-1.512-.826a99.03 99.03 0 0 0-4.076 8.472c.546-.435 1.126-.488 1.776-.297zm39.187-84.834c.14.166.296.332.39.53.108.228.045.448.11.666.081.268.391.388.203.725-.128.23-.435.284-.523.552-.159.482.392.926.611 1.305.13.227.22.467.169.728-.032.16-.171.28-.208.421-.063.248 0-.004.028.25.031.26.137.535.157.81.021.287-.079.594-.026.871.115.608.555 1.449.908 1.96.306.443.558.6 1.06.402 2.681-1.059 3.223-3.963 3.766-6.444.322-1.47.503-2.889.52-4.393.018-1.573.139-3.148.024-4.72-.444.127-.999.173-1.307.554-.164.204-.168.46-.324.646-.216.254-.665.47-.944.68l-4.215 3.152-.589.44c-.202.151-.257.127-.224.346.025.173.305.391.414.519zm18.825 8.764c-.252.33-.731.404-1.038.707-.297.295-.469.668-.611 1.052-.19.51-.393.878-.406 1.43-.012.514-.175.984-.253 1.486-.052.339-.034.443.309.543.477.138 1.055.126 1.544.076 2.342-.24 4.19-2.054 5.611-3.75 1.63-1.945 2.924-4.124 4.325-6.228-.671-.378-1.397-.66-2.038-1.092-.602-.406-1.14-.917-1.733-1.345-.081.247-.081.529-.182.768-.116.272-.277.317-.524.471a3.61 3.61 0 0 0-1.09 1.094c-.262.399-.391.907-.707 1.26-.295.33-.723.462-1.058.726-.493.388-.9 1.081-1.297 1.567-.324.395-.549.84-.852 1.235zm-43.681 21.343c.091.246.279.591.142.852-.251.477-.5-.227-.747-.341.058.41.102.818.208 1.218.071.269.166.543.116.826-.054.303-.302.473-.306.78-.002.286.148.58.191.862-.47-.056-.572-.117-.858.238.117.037.407.061.5.138.136.111.065.058.096.264.041.276-.011.732-.02 1.029-.011.342-.207.28-.355.514-.104.164-.077.48-.051.662.036.249.244.525.214.776-.037.304-.325.322-.468.549-.187.299-.022.518.062.825.114.42.097.859.152 1.288 2.055-4.138 3.664-8.487 5.965-12.498l.167-.293-.204-.121c-.03-.201-.022-.45-.04-.675-.039-.484-.173-.953-.235-1.434-.068-.538.051-1.054-.001-1.586-.017-.184-.06-.367-.065-.553-.006-.28.147-.486.169-.734.022-.254-.126-.591-.127-.864a4.268 4.268 0 0 1 .053-.638c.081-.566.25-1.115.336-1.68.176-1.162.187-2.343.386-3.503-.31.457-.66.885-.968 1.344-.306.457-.503.961-.781 1.432-.235.4-.52.764-.824 1.112-.253.29-.25.271-.148.63.043.155.103.336.078.5-.107.704-1.16.466-1.007 1.233.077.387.369.743.211 1.157-.142.371-.568.56-.729.93-.178.406.06.685.076 1.08.013.343-.14.61-.375.845-.322.323-.308.534-.391.99-.072.401-.22.796-.424 1.148-.205.35-.457.457-.35.852.079.286.249.566.352.846zm-4.892 6.337a13.46 13.46 0 0 0 1.64 3.824c.126-.685.327-1.344.362-2.044.034-.693.057-1.38.133-2.07.143-1.293.383-2.571.647-3.842.554-2.668 1.08-5.34 1.644-8.005a621.663 621.663 0 0 0-3.712 5.953c-.328.533-.928 1.2-1.02 1.833-.105.717-.035 1.559-.011 2.285.024.706.139 1.385.317 2.066zm11.771-15.983c.014.183.142.385.178.573.043.223.04.452.046.678.013.546.036 1.092.055 1.638 1.103-1.518 1.693-3.324 2.687-4.908.43-.686.905-1.349 1.221-2.097.347-.821.667-1.64 1.067-2.439.219-.436.443-.87.66-1.308.103-.21.213-.308.102-.512a.573.573 0 0 0-.292-.22c-.286-.061-.453.276-.68.39-.309.157-.699.104-1.023.214-.749.252-1.466.718-2.198 1.024-.233.097-.402.135-.383.415.016.248.272.198.009.414-.143.117-.33.063-.494.046 0 .537.11.862-.152 1.34-.209.383-.123.675-.148 1.08-.029.464-.208.943-.382 1.37-.163.4-.405.714-.169 1.131.131.23.411.4.247.662-.146.236-.381.148-.351.51zm-3.177 71.023c-.795-.472-.042-.951 0-1.392v1.392zm-1.215-2.693c-.12.005-.529.049-.603.173-.033.056.032.568.032.646-.003.392-.042.784-.021 1.175.022.402.224.772.241 1.157.016.362-.214.556-.322.878-.142.426.048 1.596.521 1.715.012-.101.032-.877.102-.909.227-.108.337.478.401.639.628-.621.814-1.473 1.108-2.306l1.015-2.876c-.416-.042-.833-.067-1.247-.121-.402-.053-.819-.191-1.227-.171zm-10.991 27.198c-.352.149-.251.574-.24.948.015.511.186.926.635 1.22.166-.442.762-1.41.589-1.872-.14-.372-.658-.433-.984-.296z" fill="#FF5678"/><path fill-rule="evenodd" clip-rule="evenodd" d="M170.142 80.328c.232-.212.591-.35.634-.695.043-.34-.279-.908-.38-1.22l-.254 1.915zm-51.517 65.615c-.603-.003.049-1.258.145-1.546.191.326.646 1.549-.145 1.546zm5.028-15.875c.237-.142.686-.307.816-.576.15-.311-.158-.308-.428-.327-.32-.022-.74-.043-1.052.017-.32.063-.457.136-.757-.053-.17-.107-.331-.373-.526-.412-.203-.04-.438.175-.613.256-.613.283-1.263.1-1.913.131-.245.012-.449.07-.677-.035-.291-.136-.358-.316-.715-.292-.58.039-1.024.216-1.619.058-.368-.098-.875-.487-1.272-.368-.369.112-.561.692-.853.937-.097-.505-.151-1.064-.538-1.443-.434-.424-1.136-.577-1.639-.925-1.134-.788-1.956-1.921-2.821-2.976a12.909 12.909 0 0 0-1.306 2.519c-.35.888-.69 1.779-1.04 2.667a152.683 152.683 0 0 1-2.231 5.318c-1.569 3.574-3.33 7.049-4.874 10.636 1.056.026 2.087.545 2.996 1.043.238.13.248.181.401.387.074.099.174.342.308.375.079.019.33-.12.454-.102.186.027.316.147.457.259a53.57 53.57 0 0 1 2.618 2.193c.387.347.65.675.913 1.122.289.493.603.807 1.043 1.166.713.581 1.124 1.6 1.622 2.376.285.447.564.9.783 1.383.197.438.266.963.626 1.306.761.723 1.951.307 2.873.427.362.047.45.15.776.003.004-.128.053-.174.147-.138a.792.792 0 0 1 .293.146c.241.131.469.288.702.432l.407-1.004c-.152-.004-.703.063-.789-.167-.072-.193.23-.247.344-.366.127-.133.201-.565.447-.556.202.007.191.184.188.357.434.009.431-.37.504-.692.05-.217.121-.432.177-.648.038-.145.281-.742.22-.867-.155-.312-1.151-.293-.516-.673.202-.121.677-.082.834-.254.125-.137.136-.698.173-.887-.296.021-.652.2-.834-.064-.262-.381.121-.963.314-1.281.251.197.407.412.693.185.306-.245.585-.701.699-1.053-.33-.009-.272.056-.44-.202-.096-.147-.123-.403-.17-.568-.097-.339-.294-.598.115-.688.256-.057.32.002.394.245.098.321.063.87.101 1.213.401-.506.812-1.049.661-1.735-.255.254-.281.185-.589-.012-.307-.197-.609-.401-.913-.603.385-.349.995-.011 1.375-.298.257-.195.126-.792.143-1.061.022-.339.169-.68.149-1.019-.021-.366-.441-.527-.219-.863.157-.235.519-.199.587-.552.068-.353-.289-.566-.555-.72.393-.128 1.15-.265.794-.792-.168-.249-.372-.271-.368-.624.003-.256.172-.533.28-.755.148.338.365 1.13.824 1.104.381-.023.721-.366.611-.712-.339-1.065-1.302-1.143-2.24-1.343.175-.646.637-.609 1.105-.281.276.194.449.357.801.158.367-.209.19-.286.028-.585-.33-.609.127-.958.575-1.312.258-.205.383-.46.603-.682.226-.227.591-.277.875-.41-.34-.166-.649-.34-1.029-.21-.252.086-.436.256-.724.109-.645-.326.192-.409.278-.678.048-.153-.117-.465-.054-.682.063-.222.202-.411.325-.602.261-.407.548-.819.392-1.326.315.363.422.443.447.953.022.453.025.909.116 1.355.019-.658.623-1.097.725-1.73.031-.197-.129-.681.059-.786.146-.082.447.128.602.129-.108-.601-.126-1.234-.329-1.815-.199-.569-.716-.787-1.15-1.16z" fill="#FF5678"/><path fill-rule="evenodd" clip-rule="evenodd" d="M289.111 66.126c-.801.167-1.572.425-2.378.579-.956.181-1.913.348-2.876.488-.647.094-1.232.241-1.657.782-.791 1.006-1.587 2.741-.498 3.81.512.502 1.41.344 2.068.552.733.233 1.416.492 2.184.592 3.582.465 7.145 1.33 10.649 2.193 1.599.393 3.195.937 4.723 1.55.783.315 1.548.68 2.248 1.154.598.404 1.281.803 1.763 1.346-1.917.326-4.068.364-5.985.038-.962-.163-1.929-.117-2.899-.19-.972-.074-1.943-.143-2.914-.228a46.82 46.82 0 0 1-2.813-.328c-.346-.052-.696-.103-1.047-.058-.204.027-.332.089-.518.046-.156-.035-.323-.157-.48-.21-.717-.24-1.483-.193-2.227-.236-.558-.032-1.153-.2-1.711-.076-.981.217-1.429 1.595-1.654 2.44-.141.532-.028 1.194.144 1.72.197.604.561.593 1.048.867.695.391 1.305.82 2.055 1.125.628.256 1.27.479 1.892.751 1.368.6 2.852 1.12 4.141 1.876.699.41 1.36.82 2.093 1.176.66.32 1.296.685 1.899 1.103 1.23.853 2.3 1.913 3.212 3.097-.423 0-.769.055-1.174-.088-.498-.176-.963-.434-1.467-.593-.96-.303-1.901-.589-2.851-.935a49.269 49.269 0 0 0-2.888-.974c-.497-.147-.998-.212-1.501-.32-.444-.095-.839-.294-1.258-.463-2.014-.808-4.17-1.197-6.254-1.781-2.029-.569-4.035-1.159-6.106-1.559a53.954 53.954 0 0 0-2.904-.496c-.953-.13-1.783.001-2.704.245-.969.258-1.848.496-2.773.903-.662.291-1.642.546-2.158 1.048-.308.3-.51.598-.902.818-.299.167-.623.284-.943.4-.727.263-1.415.61-2.137.882-.454.172-.925.307-1.412.338-.465.03-.628.143-1.045.346-.653.318-1.368.467-2.056.684-.685.216-1.465.787-2.206.526-.721-.253-1.183-1.18-1.613-1.757-1.132-1.515-2.105-3.015-2.735-4.807-.668-1.9-1.305-3.81-1.951-5.718a495.26 495.26 0 0 0-1.016-2.974c-.191-.55-.586-1.14-.155-1.647.499-.589.677-1.516 1.193-2.175.513-.654 1.091-1.256 1.635-1.885.317-.367.627-.742.91-1.137.232-.324.404-.72.661-1.02.233-.274.577-.434.834-.686.278-.275.527-.6.782-.896.671-.778 1.309-1.602 2.025-2.338.59-.609 1.265-1.15 1.872-1.75 1.314-1.297 2.71-2.508 4.072-3.754 1.327-1.213 2.683-2.387 3.974-3.628 1.213-1.168 2.669-2.111 4.029-3.087 1.489-1.07 2.917-2.198 4.521-3.1 1.535-.862 3.079-1.122 4.792-1.378-.169.333-.29.685-.514.986-.331.443-.765.84-1.14 1.247-.762.83-1.53 1.655-2.3 2.476-1.502 1.6-3.074 3.134-4.531 4.773-1.161 1.307-2.063 2.64-2.543 4.338-.253.895-.379 1.855.164 2.678.416.629 1.099.58 1.788.518 1.775-.159 3.536-.763 5.292-1.076 1.954-.35 3.951-.435 5.922-.645.989-.105 1.967-.378 2.956-.452.447-.034.887.057 1.333.02.444-.037.888-.145 1.325-.226.919-.17 1.754-.268 2.684-.144.925.123 1.809.027 2.734-.05 1.954-.16 3.956.05 5.899.261 1.86.202 3.705.426 5.522.87-1.903.484-3.802.98-5.715 1.421-1.954.45-3.97.753-5.888 1.335-.834.252-1.692.289-2.541.467zm-150.612 40.313c.208-.757.42-1.57.684-2.326a1.58 1.58 0 0 1 .254-.439 4.234 4.234 0 0 0-.428.998c-.177.587-.34 1.178-.51 1.767zm-.569 1.149zm.528-1.004a2.857 2.857 0 0 0 0-.001v.001zm116.464-7.063c-.758.483-1.496.788-2.118 1.458-1.401 1.51-2.911 2.938-4.259 4.494-.542.624-.816 1.398-1.421 1.979-.689.661-1.528 1.175-2.307 1.719-1.729 1.209-3.441 2.516-5.266 3.576-.41.238-.824.485-1.246.697-.278.14-.628.216-.871.414-.232.188-.325.468-.577.651-.186.135-.41.246-.605.369a269.28 269.28 0 0 1-4.832 2.989 161.51 161.51 0 0 0-4.72 2.939c-.825.538-1.603 1.142-2.431 1.672-.675.432-1.379.816-2.041 1.268-.701.479-1.356.971-2.123 1.346-.743.363-1.515.664-2.254 1.034-.436.218-.83.483-1.245.733-.272.164-.499.14-.794.241-.861.295-1.632.805-2.51 1.077-3.647 1.13-7.174-.482-10.353-2.197-1.603-.864-3.061-1.971-4.597-2.944-.671-.426-1.508-.735-2.122-1.235-.309-.252-.428-.517-.789-.715a6.662 6.662 0 0 1-.921-.589c-1.455-1.133-2.815-2.296-4.113-3.607a130.704 130.704 0 0 1-2.11-2.168c-.542-.574-.964-1.272-1.464-1.888a198.809 198.809 0 0 1-3.53-4.498c-.563-.735-1.12-1.475-1.685-2.209-.377-.49-.945-.974-1.074-1.607-.119-.583.223-1.141.504-1.622.424-.724.828-1.444 1.113-2.237.427-1.192 1.079-3.477-.226-4.332-.48.797-1.086 1.506-1.604 2.277-.52.777-.745 1.759-1.369 2.451-.657.726-1.531 1.253-2.22 1.962-.686.706-1.314 1.466-1.979 2.193-.696.76-1.435 1.478-2.167 2.203-.689.682-1.476 1.229-2.251 1.808a27.473 27.473 0 0 1-2.521 1.661c-.377.222-.765.496-1.179.645-.439.158-.826.253-1.249.472a188.07 188.07 0 0 1-5.209 2.584c-.47.225-.964.538-1.469.663-.193.048-.304.004-.517.072-.225.072-.448.198-.664.293-.897.397-1.814.702-2.744 1.014-1.934.648-3.899 1.24-5.812 1.947-1.791.663-3.533 1.38-5.379 1.893-1.819.506-3.739.59-5.611.774-.504.049-1.094-.003-1.578.138-.434.126-.674.219-1.146.181-.837-.068-1.618.091-2.447.219 1.263-2.487 1.919-5.318 2.833-7.952.242-.696.536-1.346.737-2.055.179-.633.44-1.241.754-1.818.383-.705.5-1.521.756-2.277-.199.594-.307 1.227-.496 1.823.263-.501.545-.992.795-1.499.262-.529.259-.845.262-1.415.678.078.704-.62.809-1.117.159-.757.327-1.512.489-2.268.083-.174.055-.46.098-.65.052-.225.138-.441.215-.657.592-1.678 1.243-3.327 1.673-5.057.474-1.908.889-3.833 1.315-5.752.227-1.019.527-2.057.626-3.097.047-.499.301-2.107-.405-2.33-.546-.174-1.13 1.489-1.273 1.855-.346.89-.672 1.786-1.002 2.682-.294.801-.523 1.61-.851 2.4-.332.798-.449 1.63-.743 2.439-.173.476-.451.826-.641 1.28-.139.333-.19.693-.303 1.034-.236.706-.602 1.396-.868 2.098-.34.897-.759 1.761-1.132 2.645-.342.808-.537 1.66-.857 2.47-.309.778-.787 1.473-1.094 2.258-.337.863-.643 1.737-.976 2.602-.688 1.783-1.384 3.553-1.924 5.388-.134.459-.364.91-.476 1.319-.102.371-.283.665-.429 1.034-.261.662-.37 1.406-.503 2.103l.04-.225c-.276.011-.57.071-.762-.175-.219-.28-.158-.823-.199-1.159-.323.042-.197.188-.161.481l.054.452.136 1.131c.103-.061.32-.412.408-.422.135-.015.282.352.345.533a1.51 1.51 0 0 1-.086.202c-.085.167-.167.284-.232.465-.122.34-.214.685-.386 1.005a2.623 2.623 0 0 1-.296.442c-.086.101-.367.268-.414.375-.118.266.062.929.045 1.239-.021.402-.086.833-.262 1.201-.074.154-.208.248-.277.381-.098.188-.103.285-.125.528-.08.867-.412 1.679-.712 2.487-.336.908-.599 1.84-.905 2.758-.289.869-.659 1.704-.964 2.566-.356 1.004-.673 2.021-1.007 3.032-.249.757-.631 1.429-.898 2.173-.275.762-.662 1.448-.795 2.239-.147.877-.609 1.755-.942 2.576-.279.685-.855 1.414-.969 2.144-.054.343.031.663-.082 1.004-.098.296-.286.548-.41.831-.172.389-.044.749-.162 1.147-.103.346-.337.589-.526.885-.333.522-.22 1.127-.562 1.671-.483.768-.654 1.628-.912 2.5-.128.428-.222.869-.336 1.301-.046.172-.068.514-.159.672-.114.2-.309.122-.408.236-.086.1-.105.422-.142.55-.12.405-.29.798-.455 1.188-.354.836-.761 1.651-1.068 2.506-.32.896-.642 1.791-.963 2.686-.152.426-.301.853-.466 1.274-.161.414-.331.54-.602.856-.267.311-.377.747-.627 1.077-.235.309-.394.537-.496.921-.194.725-.336 1.452-.639 2.144-.764 1.75-1.716 3.414-2.484 5.166a104.492 104.492 0 0 0-2.262 5.57c-.653 1.764-1.071 3.593-1.739 5.351-.661 1.74-1.23 3.507-1.881 5.252-.677 1.813-1.357 3.622-1.963 5.459-.219.663-.365 1.322-.507 1.989.044-.301.086-.595.137-.871-.645 1.079-1.238 2.253-.955 3.546.177-.249.31-.531.418-.83a2.726 2.726 0 0 1-.149.439c-.181.384-.351.676-.474 1.102-.272.942-.547 1.883-.815 2.826-.129.454-.249.913-.4 1.361-.135.398-.427.743-.55 1.132-.138.434-.09.967-.197 1.42a4.18 4.18 0 0 1-.435 1.141c-.158.277-.385.518-.51.812-.154.36-.062.716-.103 1.095-.053.47-.221.918-.285 1.387-.062.451.148.731.228 1.162.084.45-.086.748-.22 1.159-.114.35-.18.723-.263 1.081-.036.153-.06.634-.17.736-.079.074-.535.086-.65.106-.43.075-.859.159-1.297.158-.92-.001-1.861-.133-2.775-.231-1.848-.199-3.708-.491-5.48-1.064-1.682-.544-3.376-1.339-4.936-2.169-1.573-.836-2.969-1.981-4.283-3.174a57.073 57.073 0 0 1-2.072-2.015c-.327-.328-.653-.657-.984-.981-.264-.259-.606-.506-.633-.906-.03-.45.296-.967.455-1.373.141-.364.28-.728.419-1.093.337-.892.668-1.785 1-2.679.687-1.85 1.37-3.701 2.058-5.551.692-1.861 1.403-3.682 2.24-5.482a73.31 73.31 0 0 0 2.195-5.242c.628-1.681 1.376-3.302 2.089-4.948a29.08 29.08 0 0 0 1.037-2.695c.246-.769.428-1.495.8-2.216a7.72 7.72 0 0 0 .582-1.421c.126-.436.197-.808.48-1.161.594-.743.925-1.583 1.231-2.478.596-1.744 1.287-3.507 2.121-5.152.845-1.667 1.78-3.266 2.55-4.97.776-1.715 1.83-3.256 2.555-4.998 1.496-3.593 3.559-6.9 5.075-10.483 1.493-3.529 3.272-6.92 4.797-10.435a155.996 155.996 0 0 0 2.292-5.551c.346-.891.689-1.783 1.048-2.668.324-.799.884-1.412 1.114-2.238.236-.845.613-1.495 1.014-2.256.413-.786.626-1.733.952-2.56.714-1.808 1.46-3.605 2.223-5.393.785-1.839 1.622-3.652 2.437-5.477.308-.69.48-1.432.797-2.117.158-.341.478-.63.619-.957.066-.151.05-.362.104-.524.073-.217.21-.435.31-.641.818-1.673 1.723-3.281 2.468-4.989.762-1.746 1.54-3.49 2.21-5.274.662-1.763 1.499-3.425 2.068-5.225.271-.859.541-1.72.749-2.597.181-.764.522-1.89.349-2.675-.106-.483-.668-1.467-1.236-1.022-.524.41-.838 1.222-1.124 1.799-.43.867-.886 1.724-1.254 2.62-.294.715-.558 1.406-.965 2.067-.98 1.595-1.759 3.265-2.642 4.914a5.69 5.69 0 0 1-.706 1.003c-.264.311-.189.46-.297.854-.193.705-.779 1.274-1.076 1.94-.395.888-.738 1.724-1.233 2.566a25.558 25.558 0 0 0-1.17 2.222c-.805 1.744-1.578 3.502-2.358 5.257-.414.931-.816 1.869-1.269 2.781-.2.4-.395.807-.611 1.198-.141.255-.396.463-.514.722-.135.294.013.541-.102.828-.134.332-.279.467-.569.273-.647-.433-.776-1.36-1.124-2.022-.82-1.563-1.601-3.032-1.908-4.8-.169-.98-.102-1.978-.095-2.967.006-.878.527-1.474.985-2.2a541.632 541.632 0 0 1 3.249-5.103c.482-.746.902-1.529 1.395-2.265.477-.711 1.112-1.237 1.635-1.897.292-.367.506-.771.817-1.125.262-.3.513-.61.727-.944.408-.638.687-1.329 1.135-1.947a138.78 138.78 0 0 1 3.248-4.332c.594-.757 1.293-1.226 2.028-1.828.72-.59 1.364-1.264 2.027-1.916 1.277-1.255 2.481-2.567 3.902-3.658a68.375 68.375 0 0 1 4.496-3.179c.759-.49 1.7-.86 2.31-1.525.251-.273.512-.53.835-.72.309-.184.67-.232.971-.4.852-.475 1.637-1.254 2.412-1.848l2.317-1.773c.324-.25.936-.543 1.173-.863.133-.18.117-.43.268-.62.341-.428 1.015-.468 1.493-.653.919-.353 1.856-.543 2.82-.73.85-.164 1.661-.529 2.477-.814a22.848 22.848 0 0 1 5.518-1.172c-.846 2.497-1.807 4.958-2.455 7.518-.262 1.037-.306 2.248-.743 3.225-.158.352-.578.688-.368 1.085.156.296.594.616.873.798.58.377 1.297-.041 1.866-.27.961-.383 1.892-.877 2.922-1.054 1.069-.183 1.968-1.196 3.078-1.18.464.008.841.23 1.189.518.357.297.762.537 1.109.85.763.688 1.65 1.279 2.614 1.66.335.132.62.064.93.32.231.192.414.467.724.538-1.467 1.565-2.888 3.117-4.129 4.873-.609.861-1.062 1.702-1.394 2.704-.158.473-.303.835-.001 1.293.167.253.434.462.746.413.754-.116 1.424-1.134 1.843-1.692.485-.648 1.018-1.248 1.524-1.88 1.05-1.313 1.982-2.69 3.29-3.769.39-.32.783-.685 1.215-.95.344-.21.587-.05.968-.116.955-.168 1.812-.668 2.665-1.099.923-.467 1.847-.934 2.778-1.388.488-.237 1.205-.739 1.777-.499.64.268 1.001 1.27 1.352 1.805.337.515.64.963 1.193 1.256.907.48 2.668 1.064 3.462.14 1.125-1.311 1.011-3.457.914-5.064-.06-.985-.181-1.978-.105-2.965.066-.868.169-1.734.254-2.601 1.598 1.31 3.109 2.64 4.433 4.234.705.847 1.435 1.673 2.162 2.501.364.415.692.778.941 1.266.214.42.519.785.837 1.13.666.72 1.121 1.678 1.628 2.518.491.813.977 1.63 1.453 2.452.929 1.608 1.801 3.19 2.512 4.908.369.892.872 1.703 1.25 2.591.374.881.744 1.765 1.104 2.652.207.512.457 1.029.619 1.557.113.367.013.832.148 1.172.129.327.439.614.576.966.138.356.22.732.362 1.087.693 1.74 1.643 3.399 2.419 5.105.805 1.769 1.609 3.542 2.572 5.233.978 1.717 2.21 3.291 3.389 4.871.617.827 1.256 1.642 1.848 2.488.213.304.403.653.688.899.269.232.609.323.922.478.172-.459.408-.761.334-1.27-.063-.434-.224-.859-.359-1.273-.259-.801-.94-1.518-.769-2.406.159-.828.837-1.485 1.35-2.11.678-.827 1.36-1.652 2.042-2.475 2.293-2.765 4.728-5.415 7.103-8.116 1.209-1.375 2.394-2.773 3.644-4.11.56-.6 1.211-1.088 1.808-1.648.49-.458.812-1.036 1.274-1.513.342-.353.749-.611 1.097-.968l.849-.87c.623-.637 1.246-1.275 1.862-1.918 1.235-1.287 2.388-2.644 3.605-3.947 2.348-2.516 4.833-4.931 7.284-7.345.708 2.091 1.294 4.27 1.801 6.42.125.528.176 1.079.364 1.587.184.5.425.981.62 1.478.431 1.104.76 2.283 1.297 3.335 1.018 1.999 1.914 4.317 3.382 6.037.73.856 1.73 1.589 2.581 2.324l2.75 2.378c-.825.621-1.643 1.244-2.515 1.8zm-75.897 13.276c-.076-.176-.148-.271-.234-.335.064.038.12.098.193.239.157.304.254.654.367.976-.102-.296-.203-.592-.326-.88zm-22.15 15.845c.633.709 1.303 1.385 1.945 2.086.591.647 1.065 1.357 1.596 2.052a84.145 84.145 0 0 0 3.583 4.373c1.195 1.366 2.486 2.654 3.627 4.067 1.141 1.413 2.003 2.929 2.857 4.522.396.739.847 1.448 1.382 2.093.251.302.587.566.744.928.175.402.228.887.328 1.312.889 3.796 1.799 7.59 2.656 11.394.415 1.844.693 3.713 1.095 5.559.406 1.869 1.016 3.684 1.4 5.56.779 3.798 1.311 7.646 2.148 11.432.815 3.686 2.229 7.189 2.997 10.891.109.52.264.994.144 1.52-.1.437-.177.821-.185 1.274-.013.78-.088 1.394-.54 2.059-.891 1.312-2.135 2.453-3.575 3.108-.773.351-1.508.824-2.343 1.022-.402.094-.792.032-1.19.091-.404.06-.737.341-1.109.493-1.486.611-3.384.428-4.961.429-1.739.002-3.485-.115-5.09-.842a9.296 9.296 0 0 1-.389-.189c-.217-.033-.255-.131-.115-.292.001-.176.101-.376.109-.563.016-.395-.102-.776-.201-1.153a83.167 83.167 0 0 1-.662-2.703c-.851-3.751-1.254-7.559-1.777-11.364-.27-1.963-.662-3.907-1-5.859-.324-1.874-.519-3.754-.764-5.639-.244-1.876-.505-3.752-.758-5.628-.138-1.027-.436-2.036-.567-3.059-.099-.774.106-1.506-.07-2.282-.412-1.828-.429-3.724-.895-5.54-.48-1.872-1.174-3.711-1.82-5.531-.335-.942-.668-1.885-1.002-2.827-.197-.558-.423-1.156-.996-1.423-.318-.147-.632-.131-.918-.351-.351-.271-.652-.64-.964-.954-.672-.676-1.339-1.356-2.013-2.03-2.623-2.621-5.165-5.369-8.06-7.691-1.345-1.08-2.593-2.296-4.084-3.175-1.597-.942-3.172-1.92-4.77-2.86a17.593 17.593 0 0 0-2.446-1.201c-.75-.3-.292-1.017-.075-1.598.335-.898.625-1.81.905-2.727.211-.693.327-1.59 1.036-1.965.464-.246.666.04 1.111.179.316.098.648.114.976.099.742-.032 1.597-.365 2.329-.249.49.077.734.096 1.229.006.441-.079.906-.081 1.353-.114.826-.062 1.676-.072 2.491-.215 1.786-.314 3.595-.726 5.307-1.326 1.834-.642 3.581-1.534 5.338-2.355.118.809.234 1.631.533 2.397.239.613.634 1.433 1.219 1.758 1.281.712 1.951 1.938 2.901 3.001zm26.799 77.076c.557-.303.663.122.993.578a657.672 657.672 0 0 0 2.722 3.73c.886 1.208 1.776 2.415 2.663 3.622.832 1.132 1.752 2.212 2.516 3.391.785 1.21 1.408 2.539 2.01 3.847.512 1.113 1.256 2.272.719 3.511-.5 1.151-1.921 1.638-2.955 2.185-1.306.692-2.336 1.181-3.814.655-2.813-1.002-5.568-2.303-8.233-3.643-2.442-1.228-4.29-3.043-6.314-4.825-1.063-.936-2.165-1.798-3.159-2.811-1.033-1.055-2.018-2.157-3.059-3.204-1.619-1.631-3.318-3.073-3.038-5.598 1.545.517 3.065 1.167 4.67 1.477 1.691.327 3.416.527 5.141.438.743-.039 1.422-.242 2.147-.386.707-.14 1.428.006 2.093-.341.588-.308.952-.673 1.625-.833.684-.163 1.262-.387 1.843-.79.477-.331.919-.725 1.43-1.003zm-48.764-66.997zm-1.801-1.017c.017.01.034.022.051.035-.017-.013-.034-.024-.051-.035zm-33.12 89.18a141.378 141.378 0 0 1 2.137 3.942c.345.659.673 1.326.998 1.995.299.617.568 1.095.604 1.776-1.445-.162-2.911-1.017-4.138-1.774-1.29-.795-2.383-1.779-3.478-2.817-1.068-1.012-2.158-2.013-3.301-2.94a13.695 13.695 0 0 0-1.663-1.141c-.178-.106-.358-.213-.503-.365-.177-.185-.242-.508-.457-.648-.44-.285-1.128.141-1.523.334a6.54 6.54 0 0 0-1.461.945c-.502.441-.838 1.007-1.27 1.509-.404.472-.814.922-1.178 1.427-.825 1.143-1.722 2.359-2.774 3.304-.479.431-1.083.774-1.495 1.26a9.839 9.839 0 0 1-1.28 1.265 24.278 24.278 0 0 0-2.842 2.728c-.986 1.115-2.108 2.115-3.173 3.154-.164-.658.128-1.208.418-1.776.338-.662.577-1.377.859-2.064a48.661 48.661 0 0 1 2.058-4.387c.707-1.329 1.43-2.648 2.115-3.989.568-1.113 1.448-2.486 1.177-3.785-.106-.507-.382-1.272-.93-1.442-.546-.169-1.094.31-1.534.57-1.289.763-2.624 1.363-4.005 1.939-1.376.575-2.765 1.133-4.09 1.821-1.285.667-2.498 1.465-3.784 2.129-.636.328-1.31.572-1.938.915-.606.331-1.192.695-1.794 1.031-1.191.665-2.432 1.129-3.785 1.323.965-1.244 2.236-2.156 3.467-3.115 1.435-1.117 2.861-2.242 4.343-3.298 1.333-.948 2.688-1.861 3.991-2.849a40.52 40.52 0 0 0 1.795-1.429c.489-.416 1.015-.832 1.133-1.503.107-.603-.169-1.299-.68-1.648-.511-.348-1.16-.269-1.733-.187-1.612.229-3.182.721-4.742 1.174-.359.104-.726.275-1.085.359-.362.084-.79.049-1.16.068a26.85 26.85 0 0 0-2.083.16c-.722.092-1.46.066-2.178.181-.654.105-1.109.458-1.777.442-2.968-.071-5.723 1.579-8.66 1.579a700.848 700.848 0 0 1 5.267-3.059c.807-.464 1.646-.878 2.426-1.388.863-.564 1.655-1.204 2.546-1.732 3.187-1.886 6.734-3.265 9.641-5.589.705-.564 1.378-1.169 2.058-1.762.154-.134.357-.384.54-.47.292-.137.198-.175.454.087.282.289.478.641.711.969a15.077 15.077 0 0 0 3.346 3.381c1.492 1.098 3.211 1.764 4.883 2.535 1.686.776 3.349 1.604 5.114 2.189 1.78.589 3.666.892 5.524 1.111 1.968.233 3.803.101 5.756-.142.114 1.468.262 2.712.955 4.043.653 1.255 1.483 2.419 2.178 3.654zm7.399-111.885c.144.032.327.043.464.094-.119-.03-.271-.031-.359-.056-.037-.01-.07-.025-.105-.038zm.527.848c.056-.14.14-.296.154-.44-.008.142-.085.3-.154.44zM91.102 140.7c-2.19 1.303-4.153 2.941-6.274 4.347a32.99 32.99 0 0 1-3.296 1.908c-.546.277-1.097.553-1.667.781-.493.197-.969.516-1.475.665-.55.163-1.113.065-1.67-.001-.483-.057-.953-.026-1.35-.346-.719-.577-1.184-1.73-1.611-2.515-.61-1.122-1.324-2.293-1.761-3.493-.408-1.12-.945-2.145-1.157-3.319.376-.624.343-1.274.027-1.911-.145-.293-.333-.563-.504-.84-.195-.313-.186-.386-.535-.392l1.006 3.125c-.331-1.024-.779-2.073-1.006-3.125-.2-.917-.276-1.807-.603-2.701-.168-.455-.432-.882-.562-1.347-.108-.383-.105-.788-.156-1.18-.143-1.093-.424-2.176-.596-3.267-.329-2.082-.54-4.187-.939-6.258-.41-2.129-.938-4.246-1.403-6.365-.177-.809-.494-1.502.295-2.054.756-.527 1.597-.967 2.395-1.426.758-.436 1.512-.876 2.319-1.215.684-.288 1.343-.563 1.966-.971.387-.254.784-.252 1.222-.393.452-.146.897-.315 1.344-.473.822-.291 1.642-.584 2.462-.877.45-.16 1.371-.748 1.792-.302.218.23.243.712.304.999a140.1 140.1 0 0 1 1.281 6.97c.281 1.82.44 3.658.723 5.477.07.446.295.996.25 1.444-.032.331-.262.505-.488.721a21.479 21.479 0 0 0-1.626 1.723c-.564.669-1.105 1.361-1.715 1.991-.595.613-1.112 1.165-1.541 1.913-.36.629-.842 1.218-.675 1.97.13.584.3 1.166.995.925.803-.278 1.496-1.065 2.123-1.612.617-.537 1.225-1.082 1.853-1.605.694-.578 1.469-1.066 2.14-1.668.582-.523 1.08-1.131 1.634-1.684 1.325-1.326 2.752-2.515 4.162-3.747.65-.568 1.169-1.262 1.758-1.889.58-.617 1.212-1.185 1.822-1.773 1.323-1.276 2.7-2.56 3.933-3.923.59-.654 1.224-1.264 1.82-1.913.245-.268.427-.62.66-.875.226-.247.573-.406.826-.637 1.105-1.009 1.722-2.413 2.812-3.441.29.634.495 1.282.708 1.947.196.613.344 1.328.689 1.877.16.255.433.44.572.705.132.255.097.558.191.827.18.514.55 1.056.827 1.526.309.524.746 1.002 1.159 1.446.106.115.213.217.331.305-.048-.027-.095-.054-.146-.079.329.559.626.817 1.161 1.185l-.044.093c-.277.598-.588 1.152-.805 1.778-.376 1.081-.927 2.092-1.282 3.181-.191.586-.266 1.191-.543 1.747-.245.488-.563.935-.802 1.427-.558 1.15-.923 2.411-1.363 3.61a44.648 44.648 0 0 1-1.542 3.628 73.587 73.587 0 0 0-1.573 3.595c-.223.546-.398 1.156-.75 1.637-.38.52-.928.655-1.505.861-2.286.817-4.513 2.044-6.597 3.283zm-27.396-35.116c-1.294-1.095-3.101-.786-4.69-.793-1.847-.008-3.685.355-5.526.479-1.839.124-3.687.212-5.531.174-1.645-.035-3.284-.189-4.896-.524-.798-.166-1.578-.247-2.388-.317-.507-.044-.977-.198-1.232-.673-.337-.628-.25-1.582-.273-2.273-.024-.677-.121-1.537.148-2.175.266-.63.857-.939 1.46-1.17l2.223-.85c3-1.148 6.087-2.464 9.32-2.74.897-.077 1.798-.085 2.698-.111.773-.024 1.488-.212 2.252-.291 1.594-.167 3.153-.203 4.727-.537.432-.092.704.139 1.143.209a4.48 4.48 0 0 0 1.035.02c.712-.052 1.39-.139 2.105-.078.84.071 1.684.115 2.517.245.748.117 1.472.319 2.226.404.815.093 1.64.128 2.442.308.406.09 1.024.178 1.262.568.317.516.08 1.506.048 2.075-.043.802-.092 1.605-.084 2.41.009.872.14 1.716.308 2.571.12.615.381 1.338.242 1.973-.076.349-.332.514-.694.458-.25-.039-.456-.284-.687-.314-.45-.058-.013.278-.27.566-.207.232-.55.167-.825.243-.295.083-.568.227-.848.351-.633.278-1.29.47-1.913.778-1.386.683-2.703 1.493-4.022 2.295-.22-.657-.378-1.652-.822-2.195-.382-.467-1-.7-1.455-1.086zm90.828-41.542c.298-.838.689-1.657.937-2.511.088-.306.088-.74.401-.91.259-.144.729-.053 1.002-.052.504.005 1.009-.001 1.513-.003.252-.001.616-.059.765.206.153.272-.092.773-.097 1.077-.008.46.101.912.218 1.354a147.427 147.427 0 0 0 1.59 5.617c-.572-.257-1.016-.87-1.669-.939-.411-.043-.728.203-1.108.266-.324.053-.647.072-.97.147-1.451.338-2.77 1.09-4.242 1.354.068-.539.089-1.032.255-1.554.144-.454.304-.903.459-1.354.31-.901.629-1.8.946-2.698zm4.787-12.651c.697-.309 1.393-1.203.741-1.941-.352-.399-1.243-.19-1.703-.095-.645.133-3.124 1.75-3.428.65-.201-.72.158-1.808.486-2.442a4.02 4.02 0 0 1 .82-1.101c.358-.33.505-.23.946-.181.726.081 1.401-.143 1.879.565.093.137.112.325.306.353.15.023.24-.164.391-.164.245 0 .272.17.368.36.25.495.617 1.471 1.361 1.065.752-.41.797-1.74.798-2.456.002-1.112.077-2.222.137-3.331.048-.879.125-1.68.765-2.342.604-.624 1.072-1.492 1.806-1.97.828-.54 1.906-.48 2.856-.552 1.097-.085 2.223-.206 3.32-.093 1.124.115 2.193.168 3.323.117 1.105-.05 2.208-.118 3.314-.146 1.05-.027 2.148.061 3.188-.052.422-.045.986-.2 1.265.22.318.475.292 1.337.381 1.885-1.143-.21-3.008-.738-3.447.877-.133.49.278.925.639 1.21.526.415 1.263.403 1.902.492.357.05.932.041 1.141.4.201.343.096.985.119 1.363.098 1.572.322 3.132.486 4.697.156 1.496.273 3.032.047 4.527-.115.767-.429 1.488-.485 2.26-.035.479.04 1.021-.397 1.338-.506.367-1.379.369-1.974.5-.785.172-1.562.38-2.335.604-1.224.354-2.717.53-3.159 1.9-.471 1.46-.818 2.967-1.274 4.436-.232.745-.555 1.42-.882 2.126-.127.273-.326.59-.3.903.028.33.259.653.387.948.279-.145.572-.227.81-.44.249-.224.448-.54.649-.808.416-.556.713-1.033 1.31-1.395.022.294.092.547-.049.796-.099.177-.33.357-.461.522-.367.461-.721.934-1.12 1.37-.794.866-1.754 1.58-2.579 2.42-.828.843-1.611 1.832-2.62 2.463-.973.608-2.013 1.11-3.025 1.649.89-2.02.274-4.055-.784-5.872-.493-.845-1.092-1.622-1.646-2.426-.439-.637-1.287-1.492-1.267-2.31.011-.436.308-.811.522-1.171.238-.399.422-.824.617-1.245.394-.853.909-1.755 1.048-2.694.121-.822-.065-1.961-.62-2.62-.224-.263-.551-.238-.842-.417-.285-.177-.5-.44-.734-.676-.266-.266-.592-.45-.856-.714-.281-.28-.478-.635-.682-.972-.482-.8-.976-1.592-1.459-2.39zm3.057-17.76c.836.015 1.28.486 1.669 1.16-.261.409-.959 1.644-1.536 1.152-.107-.092-.156-.289-.286-.395-.122-.1-.275-.152-.416-.215-.32-.14-.681-.277-.885-.584-.482-.722.948-1.126 1.454-1.118zm16.337 31.34c.15-.04.613.264.761.33.271.12.609.237.849.419.24.181.329.452.493.695.05 1.82.165 3.652.151 5.476l-.151-5.477c-.107.501-.292.961-.291 1.48 0 .524.08 1.064.128 1.585.093.992.204 1.983.305 2.974a27.093 27.093 0 0 1-.088 1.711c-.726-1.009-1.438-2.03-2.165-3.038-.651-.9-1.5-.953-2.527-1.035l2.015-4.068c.077-.156.386-1.015.52-1.051zm118.577 3.084c1.083-.3 2.189-.716 3.306-.864 1.057-.139 1.996-.598 3.016-.897.899-.263 1.808-.489 2.694-.796.673-.234 1.399-.464 1.929-.962a2.458 2.458 0 0 0 .743-2.07c-.119-.875-.766-.982-1.503-1.233-3.756-1.279-7.557-2.041-11.476-2.546-2.018-.26-4.058-.585-6.096-.543-1.056.022-2.101.08-3.157.013-.955-.061-1.929.297-2.869.11-.96-.19-1.858.066-2.827.198-1.029.14-2.069.18-3.107.228-.942.044-1.944.006-2.86.252-.897.241-1.591.414-2.507.116.957-1.059 1.911-2.12 2.871-3.176 1.972-2.166 4.019-4.493 5.212-7.201.511-1.161.76-2.834-.093-3.915-.759-.96-2.415-.763-3.472-.605a10.2 10.2 0 0 0-3.825 1.402c-1.127.69-2.372 1.254-3.397 2.087-1.008.818-2.168 1.359-3.187 2.161-1.05.828-2.108 1.629-3.17 2.438-2.295 1.748-4.202 3.97-6.374 5.858a40.07 40.07 0 0 0-3.262 3.214c-.489.535-.996 1.062-1.415 1.656-.349.497-.654 1.025-1.022 1.51-.443.579-.998 1.062-1.464 1.623-.428.516-.822 1.06-1.201 1.613-.4.582-.783 1.173-1.18 1.757-.208.306-.407.828-.825.775-.59-.076-.917-.583-1.56-.234-.217.118-.352.319-.533.478-.253.223-.545.318-.84.467-.603.301-1.112.75-1.652 1.146-.572.42-1.159.766-1.69 1.244-2.227 2.013-4.283 4.17-6.425 6.266-.518.507-1.06.988-1.564 1.51-.4.414-.713.908-1.116 1.316-.232.236-.512.332-.758.537-.229.192-.42.494-.616.719-.47.54-.935 1.084-1.418 1.613-.947 1.038-1.992 1.94-2.902 3.017-.93 1.1-1.977 2.105-2.927 3.191a132.268 132.268 0 0 0-5.714 7.037c-.912 1.198-1.937 2.312-2.807 3.541-.826 1.168-1.525 2.42-2.149 3.706-.176.363-.402 1.444-1.05 1.062-.232-.137-.388-.54-.531-.764-.194-.303-.387-.607-.58-.912-.838-1.326-1.734-2.652-2.397-4.076-1.274-2.743-2.543-5.463-3.591-8.302-.531-1.437-1.136-2.837-1.739-4.244-.598-1.395-1.052-2.84-1.634-4.24-1.161-2.783-2.687-5.416-4.204-8.016-1.391-2.382-2.881-4.84-4.815-6.826-1.023-1.05-1.827-2.253-2.908-3.259-.548-.51-1.113-1-1.66-1.51-.396-.37-.732-.917-1.221-1.165-.346-.175-.715-.137-1.088-.122-.29.012-.612-.074-.891-.048-.252.023-.353.242-.596.29-.249.05-.413-.064-.608-.199-1.235-.852-2.922-1.22-4.332-1.731.892-.552 1.986-.572 2.982-.805a6.149 6.149 0 0 0 2.32-1.066c1.526-1.151 1.78-2.97 2.056-4.75.318-2.045.564-4.225.292-6.286a363.39 363.39 0 0 0-.851-6.062c-.147-.98-.334-1.937-.626-2.885-.238-.772-.544-1.57-.517-2.389.014-.404.027-1.03.334-1.322.226-.215.558-.33.798-.542a6.09 6.09 0 0 0 1.361-1.763c.283-.54.739-1.335.469-1.961-.293-.68-1.227-.804-1.854-.967-1.855-.482-3.729-.404-5.613-.67-.906-.126-1.852-.39-2.761-.38-.896.011-1.791.026-2.687.015-1.954-.023-3.914-.08-5.861.121-.518.054-1.025.095-1.543.124-.418.024-.718.237-1.103.303-.234.04-.565-.086-.8-.104a4.563 4.563 0 0 0-1.19.056c-.828.155-1.471.683-2.291.848a2.085 2.085 0 0 0-1.455 1.043c-.829 1.435-.874 3.415-.947 5.021-.085 1.904.057 3.815-.043 5.716-.024.46-.073.645-.56.597-.682-.067-1.28-.25-1.969-.068-1.315.347-2.138 1.543-2.651 2.725-.538 1.24-.826 2.638-.735 3.99.08 1.19.518 2.73 1.83 3.074.704.185 1.41-.108 2.075-.317.624-.197 1.194-.76 1.533.03.687 1.6 1.379 3.048 2.478 4.426-1.031-.07-2.059-.17-3.09-.222-.678-.034-1.638-.224-2.287.04-.381.156-.398.424-.67.662-.3.262-.882.15-1.253.138-1.112-.034-2.133-.236-3.258-.12-.829.086-1.577.497-2.4.653-1.001.19-1.996.586-2.941.962-.888.354-1.76.733-2.675 1.019-.932.291-1.865.591-2.754 1-1.584.727-2.928 1.904-4.345 2.902-.373.263-.779.489-1.127.785-.285.243-.473.563-.748.814-.44.402-.953.382-1.43.595-.488.218-.958.655-1.401.957l-1.201.82c-.761.52-1.514 1.137-2.336 1.552-1.527.77-2.726 1.993-3.967 3.155-1.339 1.255-2.817 2.348-4.107 3.653-1.286 1.302-2.462 2.683-3.497 4.193-1.079 1.573-1.989 3.24-3.011 4.848-.468.735-1.06 1.332-1.605 2.005-.274.338-.531.69-.765 1.055-.208.324-.355.738-.666.975-.621.475-1.241.755-1.741 1.39-.561.71-1.045 1.496-1.52 2.265a82.861 82.861 0 0 0-2.694 4.747c-.251.475-.248.822-.29 1.34-.033.402-.164.786-.239 1.18-.121.643-.046 1.318-.213 1.956-.109.418-.377.473-.716.708a7.32 7.32 0 0 0-.887.751c-.571.547-1.125 1.086-1.747 1.575-.632.496-1.288.976-1.838 1.567-.572.614-1.074 1.204-1.732 1.738-1.396 1.133-2.714 2.387-4.086 3.556-1.424 1.214-2.723 2.545-4.033 3.878-1.355 1.378-2.788 2.67-4.202 3.985-.111-1.56-.203-3.123-.333-4.683-.14-1.683-.52-3.325-.854-4.978-.3-1.477-.5-3.057-1-4.48-.344-.976-1.016-1.777-2.056-2.018-.52-.12-1.308.126-1.56-.454-.25-.576-.275-1.453-.376-2.073-.446-2.734.44-5.785-.702-8.401-.495-1.136-1.417-1.737-2.513-2.223-1.436-.637-3.022-.479-4.545-.795-.695-.144-1.26-.524-1.982-.556a26.238 26.238 0 0 0-2.185.02c-.76.028-1.491-.125-2.246-.122-.658.002-1.175.439-1.82.336-.724-.114-1.314-.292-2.045-.082-.648.186-1.265.241-1.938.26-.828.023-1.656-.055-2.485-.015-.76.037-1.486.268-2.24.36-1.595.196-3.132.377-4.688.806-1.54.424-3.004 1.036-4.5 1.591-2.399.89-5.15 1.57-5.811 4.397a14.059 14.059 0 0 0-.242 4.851c.159 1.291.452 2.72 1.211 3.805.811 1.162 2.158 1.514 3.447 1.914 1.477.458 2.988.528 4.5.802 1.57.284 3.138.511 4.737.468 1.586-.043 3.137-.456 4.719-.59 1.626-.138 3.246-.329 4.871-.47 1.093-.096 3.182-.406 3.73.835.173.392.421.861.104 1.211a16.33 16.33 0 0 0-1.052 1.31c-.462.63-.807 1.233-.945 2.01-.135.762-.156 1.539-.167 2.311-.044 3.185.776 6.413 1.553 9.495.808 3.207 1.708 6.397 2.835 9.508 1.074 2.963 1.871 6.049 3.145 8.936.64 1.449 1.475 2.735 2.354 4.045.74 1.101 1.417 2.434 2.507 3.234.914.671 2.083 1 3.213.91 1.356-.108 2.643-.93 3.83-1.531 2.857-1.446 5.497-3.401 8.06-5.316 1.23-.918 2.346-1.972 3.656-2.784 1.28-.792 2.57-1.503 4.012-1.92-1.202 2.532-2.294 5.105-3.571 7.602-1.26 2.464-2.303 5.018-3.437 7.539-.467 1.038-1.154 1.935-1.613 2.968-.526 1.184-1.054 2.368-1.578 3.553-.96 2.165-1.98 4.319-2.847 6.52-.197.499-.109 1.103-.364 1.542-.258.443-.539.83-.734 1.311-.42 1.034-.754 2.077-1.233 3.09-1.06 2.244-1.734 4.658-2.75 6.925-1.017 2.273-1.935 4.569-2.842 6.888-.445 1.137-.945 2.253-1.36 3.401-.383 1.059-.743 2.143-1.368 3.091-1.371 2.08-2.435 4.326-3.468 6.594-.487 1.07-.916 2.133-.99 3.324-.066 1.071.598 1.939 1.134 2.802-.976.494-1.875 1.132-2.854 1.63-1.05.535-2.146.954-3.238 1.392a328.67 328.67 0 0 0-3.307 1.345c-.97.4-1.867.891-2.807 1.349-.89.433-1.701 1.005-2.543 1.52-.91.558-1.834 1.094-2.745 1.652-1.785 1.093-3.523 2.189-5.396 3.129-.977.49-1.96.97-2.937 1.458-.804.402-1.686.755-2.273 1.465-.868 1.051-.792 2.741.032 3.81.544.705 1.88.639 2.69.662a7.22 7.22 0 0 0 1.66-.126c.45-.091.832-.331 1.27-.442.496-.127 1.051-.099 1.561-.168a21.41 21.41 0 0 0 1.487-.257c1.069-.218 2.128-.481 3.195-.707 1.039-.221 2.08-.435 3.1-.738.423-.126.87-.367 1.305-.358.473.01.887.043 1.363-.042.487-.087.964-.223 1.454-.289.455-.06.915.013 1.366-.064.508-.086.98-.31 1.472-.455.482-.142.925-.098 1.42-.098-1.22.944-2.496 1.812-3.739 2.725-1.256.921-2.427 1.939-3.635 2.921-.977.793-2.199 1.556-2.8 2.698-.485.919-.575 2.057-.38 3.069.245 1.268 1.183 1.429 2.325 1.508 1.474.103 2.611-.522 3.899-1.157 2.52-1.242 4.957-2.676 7.34-4.164 1.178-.736 2.481-1.291 3.734-1.89.662-.316 1.325-.631 1.989-.945.542-.257 1.252-.768 1.851-.71-1.648 3.415-3.373 6.792-4.825 10.298-.609 1.469-1.093 2.989-1.213 4.584-.084 1.119-.025 3.334 1.372 3.705.624.165 1.186-.249 1.605-.661.598-.589 1.149-1.232 1.72-1.847a55.338 55.338 0 0 1 3.505-3.444c1.236-1.114 2.471-2.202 3.58-3.445 1.059-1.185 2.38-2.082 3.387-3.314 1.034-1.265 1.962-2.613 3.004-3.872.685-.828 1.236-2.126 2.412-2.31.175.978 1.018 1.847 1.608 2.647 1.302 1.765 2.874 3.211 4.5 4.67 1.47 1.32 3.051 2.426 4.906 3.141 1.221.471 3.775 1.562 4.733.08.456-.704.216-2.078.045-2.849-.236-1.071-.756-2.074-1.225-3.058-.953-2.003-2.01-3.926-3.082-5.865-.539-.975-1.067-1.956-1.648-2.905-.504-.824-1.205-1.618-1.453-2.569-.103-.391-.166-.922-.04-1.317.135-.42.31-.342.686-.396.825-.118.576-1.641.468-2.235-.096-.529-.294-1.04-.484-1.541-.161-.425-.52-1.004-.499-1.464.019-.435.44-.879.612-1.269.199-.455.329-.93.47-1.404.644-2.176 1.489-4.278 2.025-6.487.534-2.199 1.101-4.349 1.883-6.475.812-2.205 1.697-4.388 2.435-6.619.717-2.165 1.422-4.325 2.21-6.466 1.579-4.295 3.262-8.558 5.124-12.739 1.837-4.125 3.924-8.141 5.512-12.373a297.56 297.56 0 0 0 2.237-6.109c.746-2.127 1.545-4.21 2.408-6.291.881-2.124 1.607-4.317 2.361-6.488.741-2.138 1.375-4.348 2.289-6.417.236.257.452.44.621.743.168.301.311.583.544.844.419.467.952.795 1.46 1.154.317.225.581.493.944.543a.254.254 0 0 1 .029.004 1.256 1.256 0 0 0-.204.022l1.389.963a4.457 4.457 0 0 0-.122-.26c.15.262.307.509.632.564a.758.758 0 0 1-.078.01c.219.162.999.939.93.101.03.136-.02.238.037.374.06.144.2.275.305.39a4.8 4.8 0 0 0 .74.632c.617.444 1.283.816 1.883 1.286.173.135.762.818.965.818l1.135.99-.435-1.521.316 1.103c.122.428.307.582.628.869.564.504 1.122 1.014 1.707 1.494 1.067.874 2.291 1.552 3.434 2.322a33 33 0 0 1 1.822 1.307c.486.376 1.079.51 1.561.875.607.46 1.146 1.061 1.672 1.608.473.491 1.03.986 1.356 1.591.37.686.376 1.58.491 2.34.116.766.231 1.532.343 2.299.23 1.574.448 3.15.637 4.729.186 1.553.414 3.104.549 4.662.136 1.576.102 3.154.279 4.729.355 3.159.758 6.379 1.434 9.487.682 3.132 1.119 6.308 1.711 9.459.304 1.621.626 3.238.944 4.856.156.796.324 1.59.482 2.385.13.658.062 1.319.178 1.982.061.355.147.71.147 1.072.001.353-.22.661-.232.976-.018.445.389 1.146.635 1.5.373.534.888 1.017 1.32 1.508.435.494.61.671.455 1.338-.663 2.861 1.036 5.258 2.851 7.281 1.997 2.227 3.995 4.373 6.287 6.301 1.201 1.01 2.33 2.1 3.479 3.167 1.102 1.023 2.29 1.822 3.577 2.602 1.304.791 2.686 1.367 4.038 2.062 1.333.686 2.629 1.336 4.046 1.835 1.348.475 2.714.879 4.007 1.482 1.022.476 2.318.456 3.349.016.695-.297 1.291-.838 1.91-1.26.58-.396 1.171-.775 1.779-1.125 1.004-.579 1.986-1.253 2.415-2.383.508-1.338.068-2.945-.222-4.289-.296-1.374-.91-2.654-1.644-3.844-.765-1.24-1.717-2.313-2.596-3.469-.908-1.195-1.718-2.453-2.668-3.619a41.348 41.348 0 0 0-2.987-3.301c-1.057-1.043-1.981-2.206-2.956-3.324-.235-.269-.594-.558-.638-.94-.039-.332.19-.572.299-.865.213-.567.15-1.191.161-1.784.006-.289.001-.586.145-.848.134-.244.383-.341.478-.604.084-.233.054-.529.1-.773.06-.31.205-.535.304-.829.246-.736-.06-1.593-.198-2.322-.131-.688-.255-1.378-.382-2.067-.274-1.49-.479-2.983-.947-4.429-.952-2.934-1.882-5.853-1.945-8.97-.032-1.56-.467-3.055-.827-4.564-.383-1.601-.771-3.2-1.166-4.797-.756-3.059-1.663-6.074-2.438-9.128-.772-3.043-1.475-6.105-2.394-9.108-.928-3.035-2.218-5.884-3.599-8.736-.663-1.371-1.39-2.554-2.367-3.726a210.822 210.822 0 0 0-3.092-3.597 744.313 744.313 0 0 0-6.329-7.179c-1.06-1.182-2.134-2.31-3.372-3.311-1.102-.892-2.612-1.643-2.959-3.101-.098-.411-.164-.831-.273-1.239-.062-.236-.256-.594-.225-.851.06-.511 1.005-.706 1.387-.879 1.323-.598 2.661-1.191 3.958-1.843.717-.36 1.353-.799 2.021-1.238.561-.369 1.201-.48 1.834-.677 1.406-.436 2.703-1.057 4.001-1.744 1.339-.709 2.689-1.417 3.987-2.199 1.318-.793 2.34-1.768 3.458-2.804.499-.463.854-.23 1.208.28.431.62.885 1.223 1.331 1.833.207.284.386.619.68.789.011.007.02.011.031.016a2.512 2.512 0 0 1-.166-.06c.108.767.685 1.291 1.194 1.818-.048-.13-.094-.262-.139-.394.128.365.303.613.538.924.468.62.993 1.165 1.546 1.708.286.281.575.559.863.838.116.111.232.223.346.335.187.18.292.237.487.325.395.179.487.49.828.736.512.371 1.15.615 1.68.98.433.298.81.904 1.311 1.015.181.039.316.01.462.154.192.188-.008.184.295.252.152.034.31-.053.463-.004.163.051.306.192.443.292l.938.685c.562.413 1.121.829 1.676 1.252 1.104.843 2.118 1.796 3.225 2.633.572.433 1.188.75 1.8 1.117.509.306.939.72 1.416 1.07.57.418 1.236.622 1.827 1 .581.371 1.14.754 1.744 1.089 1.319.73 2.659 1.411 4.056 1.976 1.414.572 2.86 1.033 4.394 1.105 1.557.074 3.03-.334 4.466-.902a39.944 39.944 0 0 0 4.165-1.926c1.31-.702 2.529-1.546 3.813-2.289a56.684 56.684 0 0 0 3.741-2.372c1.167-.804 2.277-1.702 3.537-2.358 1.272-.662 2.4-1.525 3.597-2.307a358.95 358.95 0 0 0 3.674-2.432c2.547-1.707 5.096-3.443 7.515-5.329 1.161-.906 2.307-1.837 3.324-2.903 1.086-1.139 2.381-2.109 3.574-3.134l3.432-3.332.006-.005-3.438 3.337c.544-.102.898-.455 1.336-.794.46-.357.917-.72 1.369-1.088.658-.536 1.42-1.087 1.344-2.037.288-.269.582-.531.889-.777.501-.4 1.099-.644 1.631-.998 1.093-.726 2.032-1.651 3.059-2.464.452-.357.858-.627.928-1.24.076-.664-.013-1.385-.018-2.055-.003-.518-.152-1.24.046-1.73.199-.492.86-.702 1.288-.937 1.207-.662 2.397-1.357 3.606-2.018 1.19-.65 2.224-1.084 3.584-1.2.593-.051 1.161-.14 1.747-.231.606-.095 1.17.084 1.763.192 1.345.247 2.706.394 4.05.644 1.354.252 2.693.587 4.031.916 1.338.33 2.674.681 4.033.92.695.121 1.414.201 2.088.419.51.163 1 .394 1.524.51 1.269.28 2.558.313 3.798.737 1.239.423 2.502.636 3.792.83.676.102 1.35.21 2.019.355.403.088.762.14 1.171.04.848-.208 1.536-.89 1.807-1.713.748-2.266-.699-4.699-2.172-6.306-1.58-1.724-3.576-2.931-5.473-4.265.756-.083 1.507.029 2.262.042.647.012 1.281-.017 1.929.019 1.436.078 2.867-.337 4.304-.368 1.946-.042 4.347-.438 4.855-2.656.473-2.064-1.716-3.924-3.279-4.86-1.003-.602-2.019-1.153-3.002-1.79-1.05-.68-2.348-1.08-3.508-1.538-1.18-.466-2.369-.921-3.597-1.246-1.18-.312-2.376-.48-3.507-.942 1.029-.449 2.143-.548 3.245-.754a39.322 39.322 0 0 0 3.254-.774z"/><path fill-rule="evenodd" clip-rule="evenodd" d="M303.902 148.866c-.115.487-.398.726-.879.842-.795.191-1.666.22-2.476.319-1.482.18-3.013.255-4.466.606-1.36.329-2.72.819-3.948 1.494.402-1.92.857-3.786.688-5.763-.124-1.452-.158-3.64-1.625-4.479-.34-.195-.878-.121-1.256-.142-.491-.026-.982-.049-1.473-.076-.972-.054-1.939-.156-2.907-.251-1.91-.186-3.807-.418-5.705-.697-.314-.046-.877-.012-1.087-.284-.156-.2-.082-.516-.07-.741.04-.778.009-1.553-.088-2.325-.211-1.691-.678-3.354-1.2-4.972-.264-.818-.547-1.629-.813-2.447-.128-.394-.427-.933 0-1.216.266-.177.732-.175 1.041-.253.369-.091.728-.212 1.089-.33.851-.28 1.701-.564 2.551-.847 3.232-1.076 6.492-2.081 9.714-3.179.45-.153.898-.314 1.349-.468.195-.066.534-.237.745-.145.245.108.198.379.374.54.155.141.504.151.702.266.504.29.82.798 1.216 1.207.508.527 1.077.989 1.58 1.525 2.027 2.165 3.527 4.771 4.797 7.436.342.718.565 1.461.778 2.224.203.723.461 1.43.576 2.174.267 1.737.277 3.525.492 5.274.179 1.465.647 3.24.301 4.708zm-12.88-3.925c-.005 1.158-.066 2.323-.319 3.456-.261 1.167-.733 2.286-1.154 3.402-.397 1.054-.718 2.141-1.179 3.169-.454 1.014-1.036 1.939-1.401 2.993-.747 2.159-2.028 4.054-2.935 6.139a63.74 63.74 0 0 1-3.108 6.187c-.547.962-1.055 2.025-1.747 2.891-.343.429-.736.858-1.133 1.238-.347.332-.513.079-.932.154-.61.109-.925.902-1.32 1.309-.749.772-1.514 1.535-2.334 2.231-.841.712-1.769 1.308-2.63 1.993-.823.655-1.644 1.246-2.585 1.724-1.856.943-3.991 2.1-6.133 2.001-.986-.046-1.514-.687-1.926-1.544-.438-.906-.29-1.993-.217-2.966.088-1.167.37-2.196.992-3.185.614-.976.009-1.582-.602-2.395-1.364-1.815-3.181-3.229-4.839-4.763a360.635 360.635 0 0 1-2.551-2.393l-1.404-1.329c-.343-.325-.674-.545-.797-1.001.932-.503 1.904-.931 2.764-1.56 1.754-1.283 3.364-2.849 5.018-4.261.794-.678 1.422-1.518 2.06-2.338.616-.792 1.322-1.539 1.854-2.393 1.143-1.837 2.447-3.656 3.353-5.625.452-.982.685-1.983.922-3.032.142-.631.306-1.257.466-1.884.103-.405.133-1.101.392-1.435.476-.615 1.974.378 2.523.553 1.032.328 2.108.485 3.177.65 2.265.35 4.546.649 6.797 1.084 1.18.228 2.362.48 3.558.599 1.16.115 2.327.055 3.489.047.249-.003.553.042.721-.187.095-.131.031-.293.184-.415.2-.16.46-.074.69-.049.465.049.932.077 1.397.135.2.025.6-.009.771.097.181.111.118.447.118.703zm-32.608 31.072c-.542 1.093-.855 2.622-.872 3.833-.008.65.077 1.298.211 1.933.116.554.433 1.191.333 1.749-1.375-.635-2.726-1.32-4.129-1.893-1.212-.496-2.122-1.359-3.119-2.179-1.071-.881-2.04-1.862-3.069-2.789-1.104-.995-2.256-1.936-3.379-2.909-1.999-1.732-3.678-3.679-5.319-5.749-1.443-1.82-3.512-4.14-3.415-6.602.046-1.143.13-2.442.69-3.465.465-.849 1.307-1.802 2.095-2.37.756-.546 1.499.827 1.925 1.309.916 1.038 1.851 2.059 2.781 3.085 1.768 1.951 3.446 4 5.358 5.814 1.928 1.828 3.899 3.616 5.975 5.273 1.039.83 2.184 1.603 3.127 2.543.346.345 1.019.725 1.25 1.155.248.464-.249.872-.443 1.262zm47.311-26.947c-.291-.038-.278.002-.302-.284-.039-.443.111-.966.156-1.409.215-2.112.112-4.324-.072-6.436-.361-4.148-1.216-8.226-3.385-11.824-1.001-1.66-2.133-3.227-3.552-4.558-.654-.613-1.292-1.274-2.016-1.806-.363-.268-.891-.403-1.222-.677-.178-.148-.257-.45-.408-.638-.602-.755-1.281-.95-2.241-.868-.996.084-2.04.397-3.001.663-2.044.567-4.004 1.531-5.984 2.292a187.375 187.375 0 0 0-5.917 2.409c-.853.361-1.882.645-2.639 1.19-.458.329-.592.738-.543 1.286.174 1.935.892 3.857 1.439 5.709.586 1.988 1.065 4.013 1.214 6.085-2.026-.148-4.04-.302-6.057-.557-1.009-.128-2.023-.232-3.03-.37-.521-.072-.764-.266-1.182-.537-.368-.237-.557-.036-.714.325-.816 1.874-1.137 3.919-2.021 5.78-.396.835-.892 1.615-1.304 2.443a23.21 23.21 0 0 1-1.552 2.617c-.261.386-.596.699-.885 1.061-.268.335-.461.722-.707 1.073-.515.733-1.139 1.38-1.77 2.012a61.75 61.75 0 0 0-1.854 1.941c-.595.65-1.306 1.178-1.935 1.793-.592.577-1.107 1.207-1.715 1.773-.585.546-.859 1.303-1.488 1.794-.34.264-.716.477-1.054.744-.279.22-.57.605-.967.531-.439-.082-.793-.673-1.068-.978-.354-.393-.711-.783-1.07-1.172-1.411-1.527-2.858-3.024-4.28-4.541-.695-.742-1.46-1.414-2.138-2.173-.494-.553-1.302-.946-1.993-.568-.698.381-1.536.718-2.101 1.291-.612.62-1.1 1.427-1.599 2.139-.519.742-.725 1.618-.861 2.499-.144.94-.295 1.871-.224 2.824.136 1.805.472 3.82 1.516 5.34.497.724 1.178 1.268 1.788 1.892.66.675 1.131 1.489 1.676 2.255 1.092 1.539 2.433 2.916 3.801 4.211.652.617 1.391 1.137 2.046 1.757.7.661 1.409 1.258 2.199 1.808.808.562 1.476 1.295 2.206 1.949a24.772 24.772 0 0 0 2.349 1.878c1.588 1.108 3.203 1.829 5.049 2.386 2.033.613 4.002 1.416 6.024 2.057.969.308 1.928-.117 2.851-.428.941-.317 1.864-.693 2.731-1.181 1.757-.991 3.445-2.141 5.174-3.185 1.798-1.085 3.3-2.329 4.674-3.917 1.309-1.515 2.695-3.018 3.887-4.626 2.42-3.266 3.884-7.129 5.68-10.746.955-1.922 1.923-3.814 2.717-5.812.391-.983.74-1.983 1.139-2.962.169-.415.308-.576.761-.647.523-.082 1.057-.118 1.582-.18 2.078-.248 4.106-.616 6.165-.971 1.91-.33 3.833-.671 5.541-1.642.359-.204.79-.444.986-.826.089-.174.308-1.058.184-1.199-.073-.083-.56-.073-.684-.089zM220.654 17.862c.663-.35 1.34-.671 2.014-.999 1.429-.694 2.836-1.436 4.28-2.097.655-.299 1.338-.49 2.009-.74.714-.267 1.396-.62 2.08-.95 1.44-.697 2.911-1.297 4.405-1.862.458-.174.917-.344 1.376-.514.352-.13.781-.38 1.148-.423.581-.068 1.018.525 1.414.882 2.137 1.923 3.646 4.776 4.564 7.473.502 1.472.729 2.991.996 4.518.274 1.564.565 3.095.576 4.685.011 1.617.177 3.21.105 4.832-.026.604.083 1.691-.25 2.218-.337.534-1.183.683-1.726.88-2.975 1.078-5.946 2.24-8.964 3.188-3.139.987-6.272 1.99-9.403 3.006.127-.89.276-1.78.377-2.674.094-.842.023-1.713.016-2.56-.016-1.858-.077-3.707-.45-5.533-.678-3.318-1.774-6.584-3.611-9.447-.431-.671-.944-1.283-1.456-1.892-.183-.218-.795-.734-.774-1.07.029-.439.956-.754 1.274-.92zm35.69-.36c.686.031 1.13.189 1.178.924.061.936.048 1.885.081 2.824.065 1.795.129 3.591.082 5.388-.083 3.148-.418 6.291-1.382 9.3a47.9 47.9 0 0 1-1.626 4.286c-.584 1.36-1.41 2.585-2.141 3.867a8.665 8.665 0 0 1-1.26 1.672c-.235.251-.343.385-.675.428-.337.043-.762-.044-1.1-.068-1.593-.115-3.184-.273-4.779-.35-1.581-.076-3.169-.009-4.749-.082-.741-.035-1.441-.276-2.17-.394-.735-.118-1.477-.17-2.216-.253-.381-.044-.372.046-.43-.3-.031-.184.022-.423.033-.612.018-.364.037-.728.059-1.092.02-.325-.046-.895.086-1.203.117-.274.369-.321.631-.393a39.231 39.231 0 0 0 4.306-1.473c1.443-.582 2.904-1.131 4.331-1.753.615-.268 1.309-.514 1.775-1.019.382-.414.602-.947.77-1.477.93-2.917.638-6.278.366-9.282-.28-3.088-.722-6.258-1.853-9.16 3.559 0 7.127.058 10.683.222zm-39.721 2.67c.989.37 1.612 1.233 2.187 2.065.717 1.038 1.393 2.087 1.955 3.219 1.179 2.378 1.958 4.999 2.402 7.613.425 2.495.635 5.277.147 7.78-.131.67-.473 1.207-.663 1.84-.129.427-.039 1.047.076 1.47.166.608.739.4 1.216.302.697-.143 1.394-.285 2.09-.432 2.623-.554 5.221-1.517 7.892-1.712-.228.71-.355 1.355-.814 1.964-.43.57-1.002 1.063-1.249 1.749-.206.572-.245 1.372-.036 1.952.22.61.759.618 1.323.687 1.588.192 3.151.453 4.751.54.345.02.688.058 1.028-.007.273-.053.465-.134.741-.083.367.067.689.243 1.074.283a7.79 7.79 0 0 0 1.089.012c1.34-.05 2.651.09 3.993-.042.391-.038 1.125-.26 1.491-.036.386.236.084.713.276 1.04.253.432 1.123.21 1.544.187.601-.032 1.134-.139 1.672-.416a9.507 9.507 0 0 0 2.872-2.236c.838-.973 1.446-2.11 2.045-3.239.625-1.176 1.251-2.326 1.724-3.576.483-1.277.956-2.594 1.23-3.934.273-1.338.446-2.697.704-4.039.269-1.4.316-2.825.387-4.245.074-1.472.106-2.919.014-4.391-.09-1.447-.25-2.865-.419-4.302-.044-.368-.021-.748-.08-1.112-.039-.245-.167-.477-.181-.725-.028-.493.424-.81.413-1.327-.027-1.198-1.302-1.644-2.25-1.931-1.231-.373-2.605-.598-3.893-.505-2.77.2-5.603.225-8.23 1.237-1.362-2.334-2.631-4.866-4.859-6.503-.251-.185-.524-.311-.687-.584-.139-.234-.2-.469-.386-.68-.457-.518-1.021-.583-1.661-.447-1.393.295-2.724.618-4.045 1.146-.586.234-1.208.344-1.797.573-.566.22-1.107.495-1.652.763-1.19.588-2.422 1.086-3.612 1.679-2.389 1.19-4.751 2.436-6.951 3.955-1.062.734-2.281 1.493-3.181 2.425-.397.41-.577.928-.511 1.494.069.589.371.36.821.529zM60.054 24.731c.117-1.519.07-3.043.18-4.561.105-1.443.396-2.912.68-4.33.288-1.442.811-2.723 1.4-4.062.325-.738.64-1.482.955-2.225.192-.455.333-.927.866-1.049.69-.157 1.525-.03 2.236-.055a40.742 40.742 0 0 0 2.152-.132c1.557-.139 3.103-.366 4.657-.528 1.488-.154 2.96-.244 4.429-.55.756-.159 1.506-.343 2.256-.527.562-.138 1.34-.49 1.906-.357-.7 1.593-.917 3.292-.934 5.015-.007.68-.087.957-.794.915a47.89 47.89 0 0 1-2.646-.242c-1.656-.19-3.299-.494-4.94-.778-.779-.135-1.526-.327-2.29-.496-.541-.12-.77.095-.95.59-.131.359-.174.52-.51.722-.274.165-.544.322-.797.521-.45.355-.838.781-1.17 1.248-.735 1.035-1.206 2.252-1.638 3.438-1.086 2.985-1.632 6.232-1.733 9.402-.05 1.613-.317 3.193-.334 4.81-.009.713.173 1.63-.422 2.149-.582.507-1.33.871-1.98 1.287-.57-1.632-.716-3.362-.733-5.078a58.99 58.99 0 0 1 .154-5.127zm24.096-8.633c.711.19 1.426.357 2.143.523-1.22 2.923-1.177 6.157-1.269 9.273a32.78 32.78 0 0 0 .133 4.179c.142 1.419.46 2.774.747 4.165.063.304.213.803.013 1.081-.222.309-.949.476-1.264.618-1.25.564-2.481 1.175-3.757 1.681-1.293.513-2.637.821-3.902 1.417a42.278 42.278 0 0 1-3.78 1.579c-1.267.453-2.581.785-3.804 1.355-1.16.54-2.116 1.284-3.101 2.085-.599-1.86-.832-3.752-.94-5.702-.104-1.866-.257-3.808-.067-5.67.087-.85.087-1.64.07-2.49-.015-.76.16-1.507.222-2.265.133-1.669.128-3.335.354-4.998.428-3.144 1.276-6.472 2.99-9.167.108-.172.215-.45.366-.576.254-.214.163-.174.497-.002.312.16.619.33.94.47.676.294 1.398.423 2.102.623.78.222 1.488.561 2.298.687.784.122 1.581.136 2.365.26.434.068.832.211 1.254.319.343.088.68.064 1.04.102.7.074 1.38.27 2.08.333.787.071 1.488-.088 2.27.12zM58.342 29.67a21.33 21.33 0 0 0 1.507 5.599c.24.575.513 1.38 1.202 1.539.636.147 1.407-.32 2.006-.485.47 2.793.675 5.695 1.921 8.284.158.327.365.936.689 1.15.33.219.733.005 1.062-.12 1.385-.525 2.815-.86 4.248-1.224.7-.177 1.411-.334 2.093-.571.567-.197 1.102-.434 1.696-.541 1.24-.224 2.392-.63 3.578-1.049 2.488-.879 4.99-1.675 7.286-2.995 1.096-.63 2.245-1.247 3.257-2.007.83-.624 1.759-1.559 1.352-2.691-.123-.343-.46-.91-.847-1.014-.364-.099-.691.23-1.024.306-.504.115-.39-.29-.438-.687-.036-.313-.075-.625-.113-.937a63.488 63.488 0 0 1-.216-1.97c-.242-2.727-.128-5.452-.13-8.183-.002-1.367.315-2.566.634-3.883.169-.698.327-1.4.475-2.103.083-.391.179-.82.066-1.216-.254-.887-1.517-1.132-2.265-1.384a15.851 15.851 0 0 0-1.962-.54c-.364-.072-1.339-.015-1.575-.322-.233-.303.025-1.287.049-1.648.043-.665.09-1.329.177-1.99.14-1.065.126-2.054-.725-2.833.53-.423.907-1.32.136-1.709-.887-.448-2.074-.513-3.011-.278-1.025.257-2.15.26-3.199.373-1.116.119-2.23.264-3.344.405-1.917.242-3.87.296-5.763.685-.949.194-1.898.342-2.853.493-.99.156-1.587.289-2.18 1.124-1.123 1.585-2.16 3.208-2.79 5.058-.597 1.752-.876 3.593-1.042 5.431-.178 1.982-.219 3.957-.196 5.945.022 2-.01 4 .239 5.988zm-40.27 78.3c.113-.193.458-.24.64-.313a6.35 6.35 0 0 0 .823-.412c1.334-.77 2.636-1.556 3.869-2.483.302-.228 1.045-1.063 1.482-.931.215.065.332.421.425.595.162.306.331.607.515.9.726 1.159 1.63 2.199 2.64 3.12 1.9 1.73 4.064 2.848 6.669 2.981-1.682 2.287-3.29 4.675-5.201 6.781-.964 1.063-2.022 2.024-3.023 3.05-.17.175-.263.28-.488.38-.218.097-.425.129-.605.308-.313.312-.336.776-.265 1.188-1.778.068-3.703-.728-5.317-1.381a23.391 23.391 0 0 1-2.77-1.314c-.605-.342-1.28-.725-1.724-1.274 1.63-.868 3.28-1.693 4.842-2.681 1.067-.674 2.952-1.461 2.8-3.018-.024-.242-.12-.539-.334-.679-.317-.207-.39.037-.678.1-.469.101-1.022-.518-1.38-.784-.966-.721-1.91-1.517-2.484-2.598-.172-.324-.657-1.16-.436-1.535zm-9.93 13.783c.264-.862-.972-1.526-1.517-1.941-.818-.622-1.387-1.311-1.937-2.18-2.146-3.393-2.907-7.525-2.73-11.491.048-1.101.173-2.2.198-3.301.013-.572-.024-1.105.102-1.67.118-.533.26-1.061.39-1.592.262-1.059.396-2.144.709-3.19.29-.97.685-1.905 1.148-2.804.309-.6.596-1.441 1.402-1.326 1.008.144 1.993.663 2.974.933 1.086.3 2.185.55 3.282.808 1.061.25 2.098.604 3.166.819.56.112 1.111.158 1.68.148.248-.004.694-.028.718.312.026.37-.543.774-.777 1.001-.33.322-.573.624-.754 1.05-.43 1.016-.82 2.075-.98 3.17-.155 1.065-.128 2.185-.14 3.261-.024 2.168.284 4.244 1.062 6.275.704 1.838 1.808 3.105 3.32 4.332-1.58.787-3.159 1.574-4.738 2.359-1.423.707-2.862 1.317-4.078 2.362-.5.43-1.093.927-1.45 1.488-.448.701.181 1.177.848.897.733-.308 1.454-.661 2.172-1.003.467-.223 1.247-.82 1.792-.805.463.013.639.605.845.933.33.525.741.993 1.195 1.414.953.887 2.07 1.629 3.246 2.187a15.759 15.759 0 0 0 4.113 1.279c.772.131 1.556.201 2.34.171.587-.022 1.418-.023 1.949-.31.456-.247.216-.75.668-1.009.476-.271.98-.474 1.439-.779 1.086-.72 1.73-1.649 2.367-2.76 1.463-2.552 3.243-4.884 4.337-7.634.256-.644.403-1.404.822-1.966.278-.374.9-.596.968-1.087.066-.479-.127-1.539-.603-1.761-.551-.256-1.351-.26-1.95-.399-2.596-.606-5.02-1.53-7.09-3.248a16.112 16.112 0 0 1-1.465-1.386c-.341-.363-.698-.746-.629-1.283.062-.476.445-1.173-.336-1.306-.523-.09-1.243.186-1.67.455-1.279.807-2.467 1.779-3.688 2.67-1.113.813-2.254 1.587-3.385 2.375.132-1.871.07-3.9.516-5.726a8.525 8.525 0 0 1 1.086-2.51c.502-.796.901-1.63 1.34-2.461.244.141.643.458.866.08.14-.233.042-.85-.01-1.12-.389-1.997-3.423-2.197-4.987-2.538-2.25-.49-4.497-1.083-6.774-1.431-1.051-.16-2.094-.193-3.152-.257-.543-.033-1.176-.154-1.505.395-.088.148-.1.358-.197.475-.088.108-.345.213-.465.31a5.12 5.12 0 0 0-.919.977c-.542.741-.914 1.594-1.273 2.435-.867 2.027-1.36 4.178-1.63 6.36-.276 2.237-.47 4.549-.322 6.802.271 4.147 1.398 8.365 4.01 11.679.599.76 1.251 1.382 2.114 1.834.418.219 1.73.995 1.966.228zm29.756 48.791c-.81 1.041-1.617 2.071-2.34 3.176-.728 1.112-1.422 2.245-2.135 3.367-.686 1.083-1.453 2.133-2.005 3.294-.319.669-.35 1.55-1.225 1.519-1.156-.041-2.251-.371-3.27-.912a13.56 13.56 0 0 1-5.016-4.537c-1.323-2.003-2.35-4.27-3.094-6.549a44.77 44.77 0 0 1-1.04-3.836c-.15-.655-.313-1.297-.314-1.973 0-.297.018-.594.033-.891.014-.281.17-.771-.152-.79.096-.808.189-1.615.288-2.422.071-.583.067-1.237.578-1.622.489-.37 1.256-.382 1.832-.512a29.046 29.046 0 0 0 2.07-.552c1.402-.43 2.744-.999 4.096-1.56.676-.279 1.351-.564 1.989-.925.527-.299.904-.732 1.261-.052 2.431 4.634 4.207 9.826 8.187 13.421.322.291.85.64.896 1.116.046.464-.382.909-.639 1.24zm3.2-3.275c-.56-.385-1.257-.449-1.826-.804-.652-.408-1.084-1.326-1.53-1.938-1.063-1.459-2.13-2.928-3.09-4.459-.872-1.39-1.66-2.83-2.498-4.241a22.836 22.836 0 0 0-1.378-2.098c-.215-.286-.761-1.296-1.221-1.258-.238.019-.228.25-.398.325-.088.038-.158-.004-.243.008-.308.041-.643-.115-.96-.084-.784.076-1.633.405-2.388.633-1.575.475-3.077 1.143-4.625 1.692-1.536.545-3.25.908-4.653 1.756-.554.334-1.18.869-.636 1.524.207.249.49.242.704.435.181.162.1.252.059.522l-.073.465c-.25 1.626-.456 3.255-.23 4.897.23 1.659.577 3.312 1.042 4.92 1.468 5.079 4.093 11.107 9.253 13.358 1.206.526 2.405.65 3.678.887.4.075.738.256 1.094.44.17.088.38.23.585.205.467-.058.851-.783 1.07-1.126.823-1.296 1.758-2.513 2.613-3.787a20.6 20.6 0 0 0 1.224-2.044c.21-.409.36-1.087.937-1.072l.467.623c.062.083.156.176.202.269.114.235.105.061.058.338-.061.355-.39.756-.597 1.036-1.214 1.64-2.481 3.242-3.754 4.837-1.25 1.568-2.528 3.124-3.993 4.498-.296.278-.621.617-1.055.636-.4.017-.839-.193-1.236-.262-.864-.151-1.75-.186-2.593-.447-.438-.135-.804-.389-1.258-.419-.381-.027-.641-.09-.976-.293-.756-.456-1.597-.707-2.363-1.139-1.578-.89-3.208-2.212-4.365-3.608-.599-.723-1.09-1.529-1.68-2.261-.57-.712-1.135-1.42-1.635-2.186a22.415 22.415 0 0 1-2.367-4.85c-.31-.884-.464-1.461.307-2.108.727-.61 1.407-1.248 2.013-1.981.294-.358 1.638-1.669.632-1.887-.545-.119-1.415.801-1.825 1.134-.667.543-1.32 1.069-2.092 1.458-.874.44-.89.998-.877 1.912.026 1.884.727 3.72 1.455 5.439a25.27 25.27 0 0 0 2.816 4.999c2.155 2.971 4.565 5.985 7.916 7.647 1.656.822 3.445 1.255 5.276 1.46 1.08.121 2.17.163 3.256.137.46-.012 1.059.05 1.498-.089.357-.113.416-.378.545-.702.306-.767 1.106-1.183 1.647-1.797.577-.657 1.183-1.275 1.777-1.916 1.287-1.388 2.14-3.021 3.174-4.588.572-.867 1.19-1.716 1.69-2.628.404-.74.906-1.712 1.047-2.546.111-.666-.424-1.633-1.16-1.67-.385-.019-.692.283-1.07.322-.114.012-.502-.066-.637-.01.618-1.503 1.535-2.918 2.23-4.38.393-.825.765-1.66 1.11-2.506.262-.643.574-1.171-.092-1.628zm9.9-118.968c1.215 2.807 3.17 5.044 5.165 7.322 1.056 1.206 2.134 2.301 3.414 3.271 1.192.903 2.399 1.784 3.602 2.671-1.208 1.552-2.564 2.97-3.91 4.405-1.243 1.325-2.482 2.68-3.3 4.316-.086-.783-.594-1.267-1.28-1.587-.855-.398-1.642-.832-2.385-1.42-1.577-1.246-3.044-2.732-4.387-4.224-2.731-3.033-4.472-6.848-6.37-10.416l9.45-4.338zM40.9 55.381c.462 1.297 1.13 2.546 1.742 3.778.603 1.214 1.227 2.42 1.932 3.58 1.337 2.203 2.973 4.257 5.058 5.802 1.021.757 2.116 1.51 3.252 2.087.537.272 1.126.48 1.737.445.374-.022.892-.353 1.182-.057.297.302.198.908.822.614.512-.241.963-.755 1.34-1.158a115.814 115.814 0 0 0 2.842-3.116c.892-1.027 1.625-2.197 2.378-3.326.416-.623.827-1.25 1.24-1.876.295-.448.715-.896.693-1.463-.042-1.107-1.4-1.857-2.17-2.473-.946-.754-1.824-1.53-2.629-2.432-.856-.96-1.935-1.765-2.862-2.667-1.006-.98-1.915-2.044-2.817-3.117-.716-.852-1.425-1.725-2.032-2.657-.474-.73-1.009-1.288-1.956-1.153-.742.171-1.486.293-2.2.566-.719.274-1.41.62-2.109.942-1.266.582-2.43 1.32-3.66 1.967a6.035 6.035 0 0 0-.807.487c-.14.104-.281.304-.43.379-.11.054-.185.042-.311.078-.498.14-.686.417-.935.855-.4.703-.39 1.08-.023 1.801.335.659.476 1.42.723 2.115zM90.814 90.26c.312.5.821.254 1.112-.102.885-1.08 1.713-2.248 2.507-3.398.806-1.166 1.544-2.348 2.457-3.437.92-1.095 1.862-2.174 2.816-3.24 3.561-3.984 7.216-7.874 11.143-11.493.959-.885 1.947-1.749 2.869-2.674.405-.407.899-.858.88-1.484-.014-.447-.305-.997-.694-1.225-.847-.495-1.984.711-2.613 1.161-.481.345-.998.525-1.503.808-.442.248-.884.627-1.263.965-.852.76-1.769 1.406-2.633 2.147-.876.752-1.651 1.614-2.512 2.384-.92.822-1.908 1.53-2.728 2.467-.808.924-1.49 1.933-2.334 2.833-1.796 1.914-3.264 4.077-4.795 6.206-.738 1.024-1.295 2.147-1.793 3.306a79.75 79.75 0 0 0-.729 1.74c-.223.553-.241 1.118-.344 1.697.13.026.033 1.14.157 1.339zm198.849 94.364c.675-.811 1.117-1.979 1.607-2.915.526-1.001 1.012-1.928 1.235-3.043.106-.536.171-1.085.293-1.618.115-.503.28-.948.233-1.474-.049-.55-.305-2.205-1.14-2.022-.485.107-.387.626-.39 1.005a4.498 4.498 0 0 1-.182 1.284c-.303.984-1.022 1.852-1.478 2.775-.442.895-.965 1.71-1.625 2.46a17.753 17.753 0 0 1-2.092 2.012c-.655.533-1.445.936-1.922 1.659-.285.434-.333.563-.857.683-.423.096-.82.25-1.176.503-.403.286-.69.628-1.162.816-.41.164-.845.262-1.259.415-.959.354-1.795.95-2.775 1.285-.506.173-1.021.321-1.533.475-.411.123-.895.207-1.235.484-.57.466-.889 1.654-.391 2.273.537.667 1.795.25 2.493.165l.027.136c1.176-.236 2.401-.376 3.543-.745.604-.195 1.147-.474 1.699-.782.467-.261.946-.353 1.445-.519.448-.149.804-.375 1.084-.76.357-.495.508-.348 1.059-.468.885-.195 1.648-1.199 2.256-1.807.742-.739 1.574-1.472 2.243-2.277zM120.561 41.86c.207-.326.927-.622 1.258-.835.452-.29.897-.587 1.333-.902.79-.57 1.342-.195 2.043.351 1.296 1.009 1.816 2.364 1.719 3.967.003.468.129 1.252-.232 1.638-.345.37-1.061.333-1.516.425-.596.12-1.497.875-2.114.655-.542-.194-.35-1.16-.393-1.586-.082-.796-.347-1.566-.836-2.21a4.542 4.542 0 0 0-.884-.862c-.253-.192-.583-.316-.378-.64zm-2.374 2.41c.51.088 1.036.324 1.513.518.316.128.731.248.986.476.425.378.253.974.351 1.468.058.29.206.539.099.839-.124.35-.492.411-.678.696-.273.417.079 1.007.315 1.363.408.617.966.302 1.596.21.759-.112 1.539-.143 2.27-.393.596-.203 1.09-.675 1.544-.048.169.234.204.441.538.353.277-.073.559-.45.75-.642 1.186-1.202 1.469-2.843 1.488-4.462.057-1.799-.596-3.488-1.523-5.008-.194-.32-.39-.688-.68-.936-.284-.242-.652-.337-.908-.62-.382-.42-.294-1.272-.903-1.458-.642-.196-1.565.583-2.051.916-.684.469-1.353.958-2.012 1.46-1.411 1.077-2.987 2.108-4.262 3.34-.433.417-.609 1.155-.175 1.654.434.499 1.177.174 1.742.273zm75.703 128.839c-.274-1.59-.735-3.143-1.295-4.657-.362-.981-1.19-2.668-2.511-2.571-1.455.107-.48 2.006-.339 2.761.553 2.954.872 5.976 1.309 8.95.216 1.474.282 2.993.63 4.443.17.707.412 1.398.71 2.062.189.424.417.975.891 1.167 1.442.58 1.081-1.955 1.066-2.58-.04-1.529-.076-3.059-.113-4.589l.118-.003c-.219-1.658-.181-3.329-.466-4.983zM22.504 200.93c-.79.258-1.375.456-2.234.375-.601-.058-1.197-.18-1.796-.256a15.48 15.48 0 0 1-4.439-1.257c-1.29-.579-2.498-1.276-3.563-2.205-.561-.49-1.07-1.029-1.568-1.58-.358-.395-.688-.692-1.243-.762.144.799.313 1.428.694 2.154a12.164 12.164 0 0 0 3.957 4.444c1.097.745 2.33 1.379 3.623 1.706.722.183 1.46.292 2.192.432.69.132 1.36.265 2.065.169.66-.091 1.355-.114 1.996-.299.507-.147.99-.47 1.423-.764.843-.574-.076-2.493-1.107-2.157zM48.247 21.223c.392.525 1.234.528 1.178-.241-.05-.706-.27-1.402-.498-2.067-.232-.68-.184-1.417-.197-2.126-.032-1.693.023-3.333.341-4.999.306-1.604.503-3.227.86-4.821.35-1.565.986-3.044 1.377-4.595.121-.48.218-1.414-.483-1.524-.583-.09-.927.727-1.153 1.113-.752 1.284-1.562 2.472-2.008 3.904a21.013 21.013 0 0 0-.847 4.005c-.147 1.408-.125 2.83-.212 4.242.141 1.64.067 3.456.594 5.029.237.708.598 1.477 1.048 2.08zm220.102 6.449c-.231.554-.343 1.144.053 1.664.719.944 1.865-1.205 2.039-1.806.378-1.3.852-2.61 1.063-3.954.216-1.37.113-2.844.148-4.233-.115-1.648-.334-3.292-.728-4.895-.348-1.422-.718-2.888-1.876-3.847-.481-.398-.812-.097-.88.472-.074.624.089 1.252.374 1.799.666 1.282.667 2.781.816 4.215.297 2.85.463 5.693-.284 8.49-.191.717-.44 1.412-.725 2.095zM23.808 59.523c.165.647.352 1.29.59 1.914a16.076 16.076 0 0 0 1.795 3.427c1.215 1.752 2.82 3.416 4.56 4.648.574.406 1.967 1.542 2.713 1.163 1.02-.519-.345-1.841-.759-2.229-.855-.8-1.705-1.605-2.57-2.395-.866-.792-1.512-1.806-2.195-2.755a53.047 53.047 0 0 1-1.986-2.923c-.323-.517-.604-1.06-.925-1.577-.278-.448-.689-.755-1.046-1.133-.297.142-.263.117-.34.387-.032.116-.022.351-.02.458.006.35.097.678.183 1.015zm73.244 10.038c1.62-1.466 3.395-2.704 4.923-4.266.385-.393.682-.622.349-1.16-.222-.358-.477-.54-.853-.294-.898.587-1.753 1.309-2.618 1.95-1.774 1.312-3.613 2.6-5.215 4.122-.724.69-1.394 1.44-1.957 2.267-.59.868-1.037 1.748-.377 2.72 1.924-1.77 3.811-3.585 5.748-5.339zm197.136 120.587c-.29-.072-.771.249-.987.391-.858.565-1.747 1.088-2.615 1.639-.799.507-1.588 1.031-2.375 1.558-.655.438-1.085.977-.855 1.805.106.378.28.821.719.604.322-.159.599-.313.953-.438.891-.316 1.79-.627 2.621-1.082 1.442-.788 2.793-2.008 2.986-3.726-.107-.243-.138-.675-.447-.751zm-94.77-17.333c-.293-.32-.653-.324-.808.063-.159.398.048 1.08.105 1.475.093.647.194 1.293.305 1.937.065.376.112 1.545.606 1.697.757.234.775-1.609.841-1.984-.16-.544-.311-1.09-.472-1.634-.141-.477-.227-1.172-.577-1.554zM71.889 141.038c-.181-.086-.321-.049-.36-.265-.032-.179.25-.365.293-.519.154-.553-.427.029-.637.203.2.494.398.987.599 1.479.226-.089.452-.18.678-.271-.216-.293-.243-.47-.573-.627zM177.81 51.873c.378.124.93-.044 1.315-.116a6.603 6.603 0 0 0 1.143-.31c.873-.34.799-1.374.597-2.177-.272-1.082-.877-2.118-1.357-3.116-.249-.52-.49-1.04-.716-1.57-.171-.4-.397-.962-.915-.966-.8-.006-.41 1.878-.283 2.326.32 1.13.914 2.17 1.41 3.225-.458.031-.93.092-1.387.076-.475-.016-.605-.001-.721.53-.167.767.064 1.819.914 2.098zm-7.208-9.233c.861-.053 1.72-.144 2.577-.24.631-.071 1.731-.084 2.179-.582.308-.343.255-1.071-.016-1.426-.319-.419-1.064-.254-1.538-.254-1.281.022-2.522.192-3.667.756-.42.208-1.366.584-1.265 1.15.126.708 1.202.628 1.73.596zm3.588 9.937c-.719.18-.581 1.412-.359 1.93.333.776 1.17.964 1.94.914.37-.037.902.096 1.179-.213.273-.306.27-.92.076-1.263-.256-.453-.921-.71-1.371-.92-.391-.184-1.014-.561-1.465-.448zm.096-6.407c.056-.705-.348-2.29-1.289-2.231-.448.028-.829.668-.911 1.062-.086.415.033.834.142 1.232.179.655.446 1.666 1.317 1.52.723-.12.743-.984.741-1.582zm6.791.712c.191.185.469.323.736.201.394-.178.326-.651.326-.988l.132-.042c-.223-.62-.37-1.918-1.146-2.093-.762-.172-.818.674-.746 1.202.077.563.269 1.302.698 1.72zm-23.948-.072c-.379.038-1.091.214-1.029.688.089.692 1.174.816 1.725.883.652.08 1.557.013.936-.804-.378-.498-1.01-.718-1.632-.767zm-31.909 82.677-.407.794 1.277.163c.018-.337-.644-.756-.87-.957z"/></svg>