<svg viewBox="0 0 16 16" xmlns="http://www.w3.org/2000/svg"><path d="M11.38 1.333H0V5a1.667 1.667 0 0 0 1.667 1.667H8.96V5.333H1.667A.34.34 0 0 1 1.333 5V2.667h9.46l3.874 4.26V11a.34.34 0 0 1-.334.333H14a2.486 2.486 0 0 0-4.667 0H6.667a2.487 2.487 0 0 0-4.667 0h-.333A.34.34 0 0 1 1.333 11V8H0v3a1.667 1.667 0 0 0 1.667 1.667h.22a2.493 2.493 0 0 0 4.893 0h2.44a2.493 2.493 0 0 0 4.893 0h.22A1.668 1.668 0 0 0 16 11V6.407l-4.62-5.074zm-7.047 12A1.167 1.167 0 1 1 5.5 12.167a1.173 1.173 0 0 1-1.167 1.166zm7.334 0a1.167 1.167 0 1 1 1.166-1.166 1.173 1.173 0 0 1-1.166 1.166z"/></svg>